<svg xmlns="http://www.w3.org/2000/svg" version="1.1" viewBox="0 0 1000 1000" width="1000" height="1000"><g stroke-width="2" fill="none" stroke-linecap="butt"><path stroke="#f49090" d="M 164.58 594.52 Q 166.31 595.06 167.72 596.77 C 169.57 599.01 172.33 598.76 174.55 599.42 Q 181.74 601.56 191.83 606.27 A 16.28 15.98 64.0 0 0 194.68 607.28 C 198.18 608.14 200.74 608.94 204.95 609.40 Q 213.30 610.31 221.66 611.24" data-c-stroke="d5baa8" stroke-opacity="0"/><path stroke="#7b7a7a" d="M 221.66 611.24 Q 221.70 613.26 222.63 614.93 A 1.53 1.49 86.1 0 0 223.38 615.60 Q 225.25 616.37 227.70 616.59 A 0.70 0.69 1.0 0 1 228.34 617.24 L 228.59 622.04 A 1.45 1.45 0.0 0 0 230.04 623.42 L 274.70 623.42 A 0.75 0.75 0.0 0 0 275.45 622.67 L 275.45 620.32 A 1.12 1.12 0.0 0 1 276.48 619.20 Q 279.04 619.00 279.81 618.43 A 1.51 1.50 -14.0 0 0 280.38 617.49 Q 281.13 613.07 280.39 609.97 A 1.76 1.76 0.0 0 0 278.65 608.62 L 266.57 608.78" data-c-stroke="7b7a7a"/><path stroke="#f49090" d="M 266.57 608.78 L 264.55 608.55 A 0.69 0.66 4.5 0 1 263.93 607.86 L 263.93 607.83 A 0.63 0.63 0.0 0 1 264.52 607.22 Q 270.97 606.81 272.49 606.50 Q 274.73 606.03 275.48 604.12 Q 276.12 602.47 278.05 602.21 Q 280.23 601.93 282.48 601.13 A 1.30 1.28 1.5 0 0 283.22 600.44 L 284.57 597.31 A 1.33 1.29 -4.7 0 1 285.06 596.75 C 288.22 594.80 290.26 594.80 293.17 593.73 A 1.04 1.03 86.8 0 0 293.82 593.00 Q 294.68 589.49 297.98 587.48 A 1.59 1.56 89.5 0 0 298.52 586.92 L 301.06 582.53 A 1.60 1.54 -87.9 0 1 301.69 581.92 L 304.93 580.24 A 2.22 2.15 -84.0 0 0 305.60 579.68 Q 307.97 576.75 311.12 575.57" data-c-stroke="d5baa8" stroke-opacity="0"/><path stroke="#7b7a7a" d="M 311.12 575.57 Q 327.61 570.30 345.03 571.72 A 0.74 0.74 0.0 0 1 345.71 572.54 L 345.28 576.05 A 0.74 0.73 3.5 0 1 344.55 576.69 L 339.30 576.69 A 1.05 1.04 -9.4 0 0 338.31 578.07 Q 339.35 581.16 337.48 581.25 Q 334.68 581.38 333.42 581.25 A 0.53 0.53 0.0 0 0 332.84 581.83 L 333.27 586.55 A 0.74 0.73 -5.4 0 1 332.60 587.35 L 328.28 587.75 A 1.47 1.45 88.0 0 0 326.96 589.18 Q 326.88 593.71 323.48 594.22 C 321.86 594.46 322.05 596.12 321.71 597.38 A 1.29 1.29 0.0 0 1 321.02 598.22 L 318.30 599.55 A 0.86 0.84 0.8 0 0 317.92 599.91 L 315.42 604.22 A 1.08 1.02 -87.1 0 1 314.98 604.64 Q 312.21 606.06 311.16 609.03 A 3.01 2.98 84.9 0 1 309.84 610.62 L 307.58 611.92 A 2.86 2.85 -9.3 0 0 306.22 613.80 Q 305.22 618.72 305.71 622.57 A 0.73 0.71 89.9 0 0 306.33 623.20 Q 309.53 623.63 309.93 623.63 Q 341.16 623.54 475.25 623.58 Q 482.74 623.58 489.49 623.13 A 0.69 0.69 0.0 0 0 490.14 622.44 L 490.14 616.33 A 0.34 0.34 0.0 0 1 490.45 615.99 L 496.45 615.44 A 0.71 0.71 0.0 0 0 497.09 614.73 L 497.09 608.97 A 0.41 0.41 0.0 0 1 497.50 608.56 L 501.50 608.56 A 1.02 1.01 0.0 0 0 502.52 607.55 L 502.52 599.23 A 0.56 0.56 0.0 0 1 503.21 598.69 Q 505.84 599.33 508.29 599.07 A 1.02 1.01 -5.8 0 0 509.19 597.97 L 508.62 591.83 A 0.43 0.43 0.0 0 1 509.05 591.36 L 513.99 591.36 A 0.93 0.93 0.0 0 0 514.92 590.46 L 515.22 582.52 A 0.61 0.60 -1.1 0 1 515.78 581.94 Q 516.19 581.91 518.51 581.80 Q 520.93 581.68 520.57 579.27 Q 520.50 578.78 520.62 574.86 A 0.67 0.66 0.4 0 1 521.29 574.21 L 526.46 574.21 A 0.71 0.70 87.4 0 0 527.16 573.44 L 526.59 567.28 A 0.92 0.92 0.0 0 1 527.69 566.29 Q 531.71 567.09 531.65 565.03 Q 531.59 562.98 531.89 561.55 A 0.81 0.79 81.0 0 1 532.27 561.01 L 535.08 559.39 A 0.73 0.72 -15.0 0 0 535.45 558.76 L 535.45 556.34 A 0.71 0.70 83.3 0 1 535.98 555.65 L 538.97 554.93 A 0.96 0.96 0.0 0 0 539.68 554.17 L 540.50 549.51 A 0.95 0.94 -2.0 0 1 541.20 548.77 L 543.28 548.27 A 1.76 1.75 -1.8 0 0 544.60 546.87 L 545.66 540.86 A 0.71 0.70 -2.0 0 1 546.19 540.30 L 549.94 539.39 A 0.56 0.55 -2.6 0 0 550.35 538.95 L 551.14 534.51 A 0.92 0.91 88.5 0 1 551.82 533.79 L 554.20 533.21 A 1.84 1.83 -89.7 0 0 555.55 531.87 Q 556.42 528.39 556.27 524.36 C 556.04 518.39 549.64 518.65 545.25 518.66 Q 509.48 518.73 471.50 518.75 C 436.04 518.77 423.02 518.43 399.73 519.22 A 0.59 0.59 0.0 0 0 399.17 519.74 L 398.70 523.63 A 0.77 0.77 0.0 0 1 397.85 524.30 L 394.54 523.90 A 0.76 0.76 0.0 0 0 393.69 524.65 L 393.69 528.94 A 0.75 0.75 0.0 0 1 392.94 529.69 L 387.81 529.69 A 1.11 1.10 90.0 0 0 386.71 530.80 L 386.71 539.81 A 0.96 0.96 0.0 0 1 385.75 540.77 L 381.28 540.77 A 1.02 1.02 0.0 0 1 380.26 539.75 L 380.26 537.14 A 0.71 0.71 0.0 0 0 379.57 536.43 L 374.51 536.22" data-c-stroke="7b7a7a"/><path stroke="#f49090" d="M 374.51 536.22 L 374.26 531.42 A 2.38 2.38 0.0 0 0 372.45 529.23 C 371.03 528.87 367.82 528.16 367.09 526.21 Q 366.35 524.25 365.60 523.52 A 1.04 1.02 -14.6 0 0 365.18 523.28 L 362.34 522.41 A 2.93 2.85 75.4 0 1 361.15 521.69 Q 358.74 519.28 355.13 517.94 A 1.61 1.60 85.0 0 1 354.30 517.24 Q 353.37 515.58 353.09 512.89" data-c-stroke="d5baa8" stroke-opacity="0"/><path stroke="#7b7a7a" d="M 353.09 512.89 Q 365.56 509.35 378.90 509.02 A 0.66 0.66 0.0 0 0 379.53 508.44 L 379.96 504.86 A 1.28 1.27 0.8 0 1 381.12 503.74 L 388.10 503.09 A 0.62 0.60 86.1 0 0 388.65 502.44 L 388.41 497.77 A 1.10 1.10 0.0 0 1 389.51 496.61 L 396.32 496.61 A 0.74 0.74 0.0 0 0 397.02 495.64 Q 396.51 494.07 396.72 491.89 A 0.58 0.58 0.0 0 1 397.16 491.38 L 403.12 489.93 A 1.36 1.34 1.4 0 0 404.11 489.00 L 408.23 475.52 A 0.90 0.89 -7.2 0 1 408.64 475.00 L 411.75 473.20 A 1.02 1.01 78.1 0 0 412.26 472.41 Q 413.93 456.87 412.27 440.73 A 0.70 0.69 -87.9 0 0 411.70 440.11 L 408.21 439.49 A 1.70 1.69 -89.5 0 1 406.83 438.08 L 406.09 433.19 A 1.06 1.05 -0.7 0 0 405.18 432.31 L 397.41 431.37 A 0.73 0.72 -83.3 0 1 396.78 430.56 L 397.07 428.15 A 0.84 0.83 6.8 0 0 396.33 427.22 L 390.41 426.50 A 0.90 0.90 0.0 0 1 389.62 425.61 L 389.62 420.42 A 1.03 1.03 0.0 0 0 388.59 419.39 L 380.13 419.39 A 0.50 0.49 0.0 0 1 379.63 418.90 L 379.63 414.68 A 0.58 0.58 0.0 0 0 379.09 414.10 L 371.44 413.54 A 1.07 1.06 2.0 0 1 370.45 412.48 L 370.45 409.25 A 0.60 0.59 88.2 0 0 369.82 408.65 Q 367.24 408.84 364.30 408.17 Q 362.93 407.86 362.90 405.50 A 1.91 1.89 4.8 0 0 361.33 403.66 L 354.40 402.43 A 0.90 0.88 81.7 0 1 353.76 401.94 Q 353.18 400.73 353.12 400.05 A 0.90 0.90 0.0 0 0 352.31 399.23 Q 343.74 398.36 334.04 398.49 C 331.95 398.52 331.80 395.93 329.75 395.21 A 0.09 0.09 0.0 0 1 329.75 395.05 L 332.01 394.17 A 1.21 1.20 1.2 0 0 332.66 393.55 Q 333.52 391.55 333.25 388.22 A 0.51 0.51 0.0 0 0 332.74 387.74 L 324.54 387.74 A 0.68 0.67 87.2 0 1 323.87 387.13 L 323.41 382.19 A 0.43 0.42 -2.2 0 0 322.98 381.80 L 317.01 381.80 A 0.99 0.99 0.0 0 1 316.17 381.33 Q 315.49 380.22 315.89 377.66 A 0.66 0.66 0.0 0 0 315.24 376.90 L 301.56 376.90 A 0.75 0.74 3.5 0 0 300.82 377.55 L 300.39 381.18 A 0.72 0.71 -87.6 0 1 299.72 381.80 L 292.58 382.17 A 0.66 0.66 0.0 0 0 291.95 382.83 L 291.95 387.46 A 0.95 0.95 0.0 0 1 290.96 388.41 Q 284.63 388.14 277.44 389.20 C 275.56 389.48 275.88 391.43 274.90 392.39 Q 274.08 393.18 270.98 393.61 A 1.33 1.32 1.2 0 0 269.85 394.69 L 268.68 401.33 A 1.16 1.13 81.1 0 1 268.12 402.12 L 265.65 403.55 A 1.23 1.21 -12.0 0 0 265.04 404.47 L 263.37 418.32 A 0.73 0.72 89.5 0 1 262.76 418.95 L 259.70 419.42 A 0.79 0.78 -4.3 0 0 259.03 420.19 L 259.03 425.98 A 1.06 1.05 -2.7 0 1 258.07 427.03 L 253.55 427.45 A 0.79 0.79 0.0 0 0 252.83 428.18 L 252.38 434.33 A 0.79 0.79 0.0 0 1 251.70 435.06 L 247.23 435.75 A 0.81 0.81 0.0 0 0 246.54 436.46 L 245.87 441.99 A 0.93 0.91 86.8 0 1 245.18 442.77 L 239.41 444.17 A 1.06 1.05 7.8 0 0 238.77 444.65 L 238.40 445.29 A 1.62 1.61 -81.5 0 1 237.37 446.06 L 230.15 447.82 A 0.97 0.95 1.5 0 0 229.46 448.46 Q 229.04 449.79 228.22 450.81 A 1.55 1.51 -72.8 0 1 227.17 451.38 L 211.85 452.80 A 0.65 0.65 0.0 0 0 211.25 453.45 L 211.25 458.43 A 0.74 0.74 0.0 0 1 210.55 459.17 L 199.07 459.77 A 0.55 0.54 88.9 0 0 198.55 460.32 L 198.55 464.90 A 1.12 1.11 -2.8 0 1 197.54 466.01 L 192.34 466.49 A 0.75 0.75 0.0 0 0 191.66 467.15 L 191.28 470.26 A 1.03 1.01 -88.9 0 1 190.36 471.16 L 187.02 471.47 A 0.46 0.46 0.0 0 0 186.66 471.70 L 185.26 474.12 A 0.85 0.85 0.0 0 1 184.60 474.54 L 181.23 474.85 A 0.99 0.98 -3.2 0 0 180.34 475.84 Q 180.37 477.45 179.94 478.46 A 1.21 1.20 -85.0 0 1 179.11 479.16 L 174.22 480.35 A 0.80 0.79 86.0 0 0 173.61 481.06 L 173.12 487.27 A 1.02 0.99 79.4 0 1 172.58 488.08 Q 171.73 488.53 169.33 488.57 A 1.17 1.16 -88.1 0 0 168.18 489.65 L 167.85 494.22 A 0.77 0.76 89.6 0 1 167.16 494.93 L 163.57 495.26 A 0.86 0.85 -87.8 0 0 162.81 495.97 Q 162.55 497.64 162.59 498.79 Q 162.65 500.96 160.17 500.66 A 0.61 0.60 8.2 0 0 159.51 501.15 L 158.34 507.74 A 1.67 1.65 81.9 0 1 157.46 508.92 Q 155.49 509.93 154.93 510.94 A 2.54 2.47 -27.4 0 0 154.61 511.90 Q 153.84 518.41 152.10 523.50 C 151.38 525.61 148.99 524.38 148.63 527.76 Q 146.65 546.30 148.85 564.35 A 1.21 1.20 -75.5 0 0 149.34 565.19 Q 149.70 565.45 150.30 565.51 C 154.28 565.89 153.51 577.02 153.22 580.04 A 1.04 1.03 -1.5 0 1 152.34 580.96 L 148.10 581.61 A 0.57 0.56 -2.6 0 0 147.62 582.13 L 147.37 585.52 A 0.98 0.97 88.2 0 1 146.54 586.41 L 141.43 587.19 A 1.31 1.30 4.0 0 0 140.39 588.09 L 138.92 592.93 A 1.10 1.05 -7.8 0 1 138.46 593.51 Q 137.44 594.11 135.23 594.40 A 0.74 0.74 0.0 0 0 134.62 594.95 Q 133.24 600.51 134.24 607.29 A 2.89 2.88 11.0 0 0 135.65 609.37 L 138.78 611.18 A 1.06 1.00 1.0 0 1 139.17 611.56 L 141.12 614.95 A 0.88 0.87 83.1 0 0 141.60 615.33 L 146.46 616.81 A 1.02 1.00 4.7 0 1 147.17 617.63 L 147.80 621.75 A 1.45 1.44 88.4 0 0 149.08 622.97 Q 159.82 624.08 169.81 623.04 A 1.02 1.01 2.3 0 0 170.70 622.22 Q 171.74 616.35 171.07 610.44 A 1.32 1.32 0.0 0 0 169.85 609.27 Q 163.35 608.82 158.17 608.41 Q 155.20 608.18 152.97 606.73 C 151.13 605.54 150.39 605.28 148.58 604.81 A 2.67 2.17 -75.5 0 1 147.15 601.69 C 147.69 599.61 150.39 599.62 152.45 599.05 A 1.06 1.06 0.0 0 0 153.06 598.57 L 154.65 595.83 A 0.79 0.76 -77.5 0 1 155.24 595.44 L 164.58 594.52" data-c-stroke="7b7a7a"/><path stroke="#5b412f" d="M353.09 512.89Q347.35 514.36 340.14 514.59A1.65 1.65 0 0 0 338.56 515.97Q337.82 520.53 339.22 526.47A1.19 1.17-82 0 0 339.76 527.2L342.25 528.63A.87.8-87.7 0 1 342.6 529.04L343.38 530.99A1.81 1.76-82.6 0 0 343.93 531.72Q345.07 532.6 346.8 532.96 356.7 535.03 366.19 536.13 370.4 536.61 374.51 536.22M311.12 575.57Q306.2 575.7 301.73 574.05A1.01.98-87.4 0 1 301.12 573.36L300.68 571.54A1.73 1.72 87.9 0 0 299.3 570.25L293.95 569.3A.86.84-1.4 0 1 293.27 568.67L292.77 566.57A1.32 1.32 0 0 0 291.88 565.63L289.59 564.93A1.45 1.45 0 0 1 288.71 564.19L288.08 562.96A1.76 1.74-.4 0 0 287.26 562.16Q285.68 561.41 282.43 561.47A1.72 1.71 1.5 0 0 280.75 563.06L279.54 579.65A1.99 1.98-10.3 0 1 278.38 581.32Q276.41 582.21 276.04 584.25 275.4 587.81 274.71 589.83A1.03 1.02 2.5 0 1 273.97 590.5L271.18 591.18A1.79 1.78-4.9 0 0 269.82 592.79L269.52 596.9A1.28 1.27 85.3 0 1 268.56 598.04L263 599.39A.98.98 0 0 0 262.3 600.04L261.54 602.53A1.22 1.22 0 0 1 260.56 603.39L256.94 603.94A1.99 1.98-89.2 0 0 255.28 605.56L254.98 607.21A1.58 1.58 0 0 0 256.58 609.06L266.57 608.78" data-c-stroke="5b412f"/><path stroke="#5b412f" d="M 221.66 611.24 L 222.06 604.63 A 0.53 0.52 87.2 0 1 222.49 604.15 L 231.97 602.39 A 2.87 2.84 19.5 0 0 233.22 601.80 Q 234.90 600.40 237.72 600.16 A 1.03 1.02 8.9 0 0 238.56 599.55 Q 239.19 598.12 239.19 596.17 A 1.12 1.11 -2.8 0 1 240.20 595.06 L 253.18 593.86 A 0.95 0.93 1.9 0 0 254.02 593.09 L 254.82 588.58 A 0.87 0.87 0.0 0 1 255.55 587.87 L 260.79 587.07 A 0.92 0.92 0.0 0 0 261.55 586.33 L 262.21 582.57 A 1.28 1.28 0.0 0 1 263.16 581.56 L 264.88 581.15 A 1.36 1.35 -5.3 0 0 265.91 579.92 C 266.11 577.02 266.93 572.68 266.87 568.75 Q 266.72 559.17 266.16 549.47 Q 266.04 547.25 263.44 547.53 A 1.36 1.36 0.0 0 1 261.94 546.31 L 261.36 539.94 A 0.77 0.77 0.0 0 0 260.59 539.25 L 255.90 539.25 A 0.96 0.96 0.0 0 1 254.94 538.29 L 254.94 534.87 A 1.07 1.06 0.0 0 1 256.01 533.81 L 260.88 533.81 A 0.75 0.75 0.0 0 0 261.63 533.11 L 261.86 529.91 A 0.86 0.85 -87.8 0 1 262.71 529.11 L 274.44 529.11 A 0.66 0.65 88.1 0 1 275.09 529.73 L 275.57 539.00 A 0.81 0.80 3.6 0 0 276.24 539.75 L 279.65 540.36 A 0.83 0.83 0.0 0 1 280.32 541.02 C 281.13 545.19 283.00 544.62 286.43 545.39 A 1.02 1.00 88.5 0 1 287.19 546.12 C 287.86 548.71 287.24 551.67 291.59 551.62 A 1.16 1.15 -1.8 0 1 292.76 552.71 Q 292.92 555.63 295.88 556.16 Q 298.71 556.67 302.06 557.33 A 1.47 1.42 -11.9 0 1 302.95 557.89 L 303.94 559.27 A 2.77 2.74 79.7 0 0 305.41 560.30 Q 312.35 562.24 318.00 559.58 A 6.16 6.03 28.7 0 1 319.96 559.03 Q 333.27 557.64 343.27 557.86 Q 345.91 557.91 345.48 554.87 A 1.81 1.81 0.0 0 1 347.10 552.81 L 351.05 552.45 A 1.49 1.48 2.3 0 0 352.37 551.24 Q 352.91 548.41 350.04 548.16 Q 345.02 547.74 336.97 547.42 A 1.04 1.03 -88.9 0 1 335.98 546.38 L 335.98 541.76 A 0.82 0.81 -88.1 0 0 335.22 540.94 L 332.62 540.75 A 1.10 1.10 0.0 0 1 331.65 539.30 Q 332.54 536.66 330.78 536.51 Q 328.09 536.29 326.90 536.08 A 0.93 0.92 2.5 0 1 326.13 535.25 Q 325.03 522.46 326.51 510.97 A 0.96 0.96 0.0 0 1 327.25 510.15 L 329.43 509.61 A 1.73 1.71 -10.2 0 0 330.74 507.74 Q 330.44 505.05 332.26 504.94 Q 334.14 504.83 335.43 504.59 A 1.01 1.00 -87.2 0 0 336.22 503.87 Q 336.58 502.60 336.36 500.89 A 0.65 0.64 85.0 0 1 336.96 500.17 L 364.18 498.76 A 1.72 1.67 -68.2 0 0 365.30 498.26 L 366.54 497.02 A 1.15 1.06 -69.6 0 1 367.17 496.70 L 377.66 495.10 A 1.31 1.29 -72.9 0 0 378.42 494.69 Q 379.11 493.82 378.43 490.63 A 0.96 0.95 -7.5 0 1 379.32 489.48 L 383.76 489.25 A 0.70 0.70 0.0 0 0 384.42 488.52 L 383.97 479.96 A 0.85 0.85 0.0 0 0 383.12 479.15 L 375.18 479.15 A 0.60 0.60 0.0 0 1 374.58 478.55 L 374.58 467.42 A 0.72 0.72 0.0 0 1 375.30 466.70 L 386.70 466.70 A 0.86 0.86 0.0 0 1 387.56 467.48 L 388.01 472.33 A 0.85 0.84 -88.3 0 0 388.72 473.09 Q 393.76 473.84 397.29 473.19 A 0.78 0.77 88.5 0 0 397.92 472.52 Q 398.87 464.60 397.85 457.44 A 1.03 1.02 -4.2 0 0 396.83 456.57 L 390.46 456.57 A 0.85 0.84 -84.1 0 1 389.64 455.55 Q 390.14 453.08 389.27 452.54 A 0.48 0.38 -20.3 0 0 389.06 452.47 L 385.75 452.23 A 0.77 0.76 -88.0 0 1 385.04 451.46 L 385.04 436.86 A 0.95 0.95 0.0 0 0 383.95 435.92 L 381.46 436.30 A 0.54 0.54 0.0 0 1 380.84 435.81 L 380.50 432.13 A 1.49 1.48 89.3 0 0 379.13 430.79 L 374.70 430.47 A 0.63 0.63 0.0 0 1 374.12 429.90 L 373.80 426.46 A 0.77 0.77 0.0 0 0 372.96 425.76 L 368.57 426.17 A 0.68 0.67 87.7 0 1 367.84 425.49 L 367.84 421.72 A 0.98 0.97 2.2 0 0 366.94 420.75 L 354.23 419.83 A 0.80 0.79 -0.4 0 1 353.49 419.11 L 353.30 417.09 A 2.45 2.44 87.8 0 0 350.90 414.86 Q 347.44 414.81 345.13 413.07 A 3.20 3.16 -21.8 0 0 343.64 412.44 C 338.26 411.69 335.36 411.15 330.76 411.18 Q 314.39 411.28 301.20 410.80 A 1.35 1.35 0.0 0 1 299.91 409.58 L 299.76 407.93 A 0.76 0.76 0.0 0 0 299.06 407.24 L 294.79 406.93 A 0.93 0.93 0.0 0 1 293.92 406.00 L 293.92 401.08 A 0.78 0.78 0.0 0 0 293.30 400.32 Q 285.62 398.75 279.78 403.82 A 2.05 2.03 -11.0 0 0 279.18 404.70 Q 277.80 408.71 278.11 412.99 A 1.01 1.01 0.0 0 0 278.94 413.91 L 285.30 415.04 A 0.93 0.92 -85.3 0 1 286.07 415.96 L 286.07 420.24 A 0.69 0.68 -90.0 0 1 285.39 420.93 L 277.01 420.93 A 0.75 0.74 0.0 0 0 276.26 421.67 L 276.26 429.44 A 0.66 0.66 0.0 0 1 275.60 430.10 L 269.73 430.10 A 0.72 0.72 0.0 0 0 269.01 430.82 L 269.01 436.63 A 0.49 0.48 -87.8 0 1 268.49 437.12 L 263.03 436.72 A 1.16 1.15 2.1 0 0 261.79 437.87 L 261.79 445.26 A 0.78 0.78 0.0 0 1 261.01 446.04 L 255.34 446.04 A 1.01 1.01 0.0 0 0 254.33 447.05 L 254.33 455.51 A 0.60 0.59 -1.5 0 1 253.76 456.10 L 239.46 456.85 A 0.53 0.53 0.0 0 0 238.95 457.35 L 238.56 462.66 A 0.38 0.37 -0.1 0 1 238.20 463.01 L 221.36 463.89 A 0.72 0.71 88.8 0 0 220.68 464.61 L 220.68 470.17 A 0.59 0.59 0.0 0 1 220.09 470.76 L 209.70 470.76 A 1.18 1.18 0.0 0 0 208.54 472.14 Q 208.98 474.67 208.51 476.28 A 0.77 0.77 0.0 0 1 207.77 476.84 L 198.40 476.84 A 0.72 0.72 0.0 0 0 197.68 477.56 L 197.68 484.42 A 0.65 0.64 -90.0 0 1 197.04 485.07 L 191.00 485.07 A 1.26 1.26 0.0 0 0 189.75 486.44 L 190.13 490.55 A 0.57 0.56 -0.8 0 1 189.52 491.17 L 185.69 490.89 A 0.77 0.77 0.0 0 0 184.86 491.66 L 184.86 495.81 A 1.05 1.05 0.0 0 1 183.81 496.86 L 179.71 496.86 A 0.43 0.43 0.0 0 0 179.28 497.29 L 179.28 506.31 A 0.91 0.91 0.0 0 1 178.41 507.22 L 172.69 507.52 A 0.45 0.45 0.0 0 0 172.26 507.94 L 171.65 516.24 A 1.14 1.13 89.4 0 1 170.63 517.29 Q 169.58 517.39 168.50 517.77 A 0.94 0.91 -5.0 0 0 167.88 518.49 L 165.89 529.67 A 0.72 0.72 0.0 0 1 165.42 530.23 Q 164.38 530.60 163.33 530.59 A 1.17 1.16 -0.7 0 0 162.15 531.79 C 162.23 534.61 161.17 538.47 161.13 542.10 Q 161.01 551.49 161.71 565.24 A 0.94 0.94 0.0 0 0 162.02 565.89 Q 162.80 566.61 165.25 566.30 A 1.23 1.23 0.0 0 1 166.64 567.46 L 167.20 578.28 A 1.42 1.42 0.0 0 0 168.57 579.62 Q 171.04 579.70 171.21 581.81 C 171.31 582.99 171.86 584.80 171.57 586.27 A 1.07 1.05 -88.7 0 1 170.69 587.13 L 166.85 587.71 A 0.98 0.98 0.0 0 0 166.03 588.74 Q 166.34 593.07 164.58 594.52" data-c-stroke="5b412f"/><path stroke="#7b7a7a" d="M736.0449 520.7959A8.91 8.41-151.7 0 0 739.9029 532.4248 8.91 8.41-151.7 0 0 751.7351 529.2441 8.91 8.41-151.7 0 0 747.8771 517.6152 8.91 8.41-151.7 0 0 736.0449 520.7959M587.39 553.83A.98.97 0 0 1 588.37 554.8L588.37 589.5A1.05 1.05 0 0 0 589.4 590.55L595.9 590.68A.93.93 0 0 1 596.81 591.47L597.13 593.54A.92.91 87.3 0 0 597.98 594.32C605.95 594.76 616.28 595.17 615.13 584.48 614.91 582.43 615.14 580.89 612.75 580.96Q608.02 581.1 604.85 580.81A.98.97 2.6 0 1 603.96 579.84L603.96 554.92A.88.88 0 0 1 604.84 554.04L612.12 554.04A1.41 1.41 0 0 0 613.53 552.66L613.74 541.51A.84.84 0 0 0 612.91 540.65L604.82 540.49A.81.8 87.6 0 1 604.03 539.76L603.18 530.56A1.43 1.42-70.5 0 0 602.77 529.69L598.94 525.86A1.81 1.67 75.4 0 0 598.3 525.45Q595.55 524.45 592.38 525.83C588.23 527.65 588.41 535.85 588.38 539.52A.69.68-2.8 0 1 587.76 540.2L580.97 540.83A.84.83-2.3 0 0 580.21 541.65L580 552.17A1.63 1.63 0 0 0 581.63 553.83L587.39 553.83M628.76 539.98Q624.18 539.82 620.67 543.26A2.15 2.14 67.8 0 0 620.03 544.79L620.03 555.65A.69.68 0 0 0 620.72 556.33L625.52 556.33A.4.4 0 0 1 625.92 556.71L626.72 572.13A.38.37-87.2 0 0 627.03 572.48L630.96 573.17A.99.98 89.5 0 1 631.75 573.95L633.16 580.59A1.3 1.3 0 0 0 633.95 581.54Q634.17 581.62 634.44 581.7A1.01 1.01 0 0 1 635.15 582.51L636.38 590.61A.77.76 83.8 0 0 637.18 591.26Q639.22 591.14 639.56 592.36A.64.54-58.7 0 1 639.59 592.55L639.59 596.24A.8.79 81.6 0 1 639.03 597C636.27 597.84 632.89 598.15 631.06 599.57 628.51 601.55 626 599.95 624.22 603.94A1.12 1.11 7.9 0 1 623.37 604.58L622.37 604.74A1.77 1.75-88.6 0 0 620.9 606.15Q619.92 611.21 620.61 614.36A.99.98-4.6 0 0 621.52 615.13Q631.04 615.69 641.83 614.42A1.39 1.39 0 0 0 643.04 613.28L643.77 609.16A.98.97.4 0 1 644.58 608.37L648.63 607.75A.89.88-88 0 0 649.36 607.06L650.65 600.94A1.23 1.21 79.6 0 1 651.19 600.14Q651.75 599.77 652.95 599.64A1.03 1.02.3 0 0 653.86 598.75L654.61 592.56A1.07 1.07 0 0 1 655.52 591.62L656.95 591.4A.95.94 88.1 0 0 657.75 590.54L658.64 579.7A.66.65-22 0 1 658.8 579.33Q659.41 578.6 661.64 578.7A1.09 1.09 0 0 0 662.79 577.68L663.6 566.58A.72.72 0 0 1 664.28 565.92L668.15 565.72A.65.65 0 0 0 668.76 565.12L669.73 551.73A.7.67-22.7 0 1 669.9 551.34Q670.61 550.51 672.05 550.38A.87.86-84.6 0 0 672.81 549.74Q673.36 547.64 673.11 545.83A.99.98 89.6 0 0 672.25 544.98L668.93 544.58A1.1 1.1 0 0 1 667.98 543.66L667.55 540.8A.71.7-5.9 0 0 666.82 540.21L660.16 540.56A1.32 1.32 0 0 0 658.92 541.65L657.79 548.01A.84.83.4 0 1 657.09 548.69L656.09 548.84A.78.78 0 0 0 655.43 549.52L654.54 556.9A.72.71-84.5 0 1 653.78 557.53L649.95 557.25A.61.6 1.3 0 0 649.3 557.87Q649.6 565.53 648.54 572.52A.95.95 0 0 1 647.93 573.26Q646.9 573.63 645.41 573.26A.73.73 0 0 1 644.87 572.66L644.29 568.85A1.36 1.18 25.8 0 0 644.08 568.36L642.98 566.83A1.17 1.14 27.3 0 1 642.75 566.14L642.75 560.4A.68.68 0 0 0 642.03 559.72L637.92 559.93A.75.74-86.3 0 1 637.15 559.05L638.23 552.94A.79.79 0 0 0 637.45 552.01L633.36 552.01A.58.58 0 0 1 632.79 551.33L633.85 545.35A.67.67 0 0 0 633.19 544.56L630.74 544.56A1.53 1.52-87.9 0 1 629.22 542.92L629.38 540.68A.65.65 0 0 0 628.76 539.98M715.95 589.74 722.17 589.74A.9.9 0 0 0 723.07 588.84L723.07 582.51A.69.69 0 0 1 723.65 581.83L728.31 581.12A.73.72 85.9 0 0 728.93 580.4L728.93 553.01A.87.86-87.9 0 0 728.13 552.14L723.62 551.82A.66.66 0 0 1 723.01 551.16L723.01 546.1A.94.93 5.2 0 0 722.24 545.18L716.09 544.09A.88.86-4.7 0 1 715.43 543.54Q715.16 542.81 715.22 541.64A1.37 1.37 0 0 0 713.85 540.2L699.09 540.2A1.15 1.14 9.7 0 0 698.01 540.96Q697.71 541.8 697.85 543.72A.88.88 0 0 1 696.97 544.66L692.22 544.66A.79.79 0 0 1 691.44 543.99L691.03 541.3A.92.92 0 0 0 690.12 540.52L681.59 540.52A1.54 1.54 0 0 0 680.1 542.45Q680.76 544.95 678.48 544.67A1.23 1.23 0 0 0 677.1 545.82Q677.01 547.41 676.7 562 676.61 566.16 676.7 609.25 676.71 614.4 681.67 615.26C684.74 615.79 689.79 615.72 691.35 612.76Q692.42 610.72 692.32 606.97 692.04 596.46 692.16 590.8A1.35 1.35 0 0 1 693.51 589.48L696.73 589.48A1.18 1.18 0 0 1 697.9 590.83Q697.72 592.12 698.1 593.61A.91.91 0 0 0 698.88 594.28Q706.76 595.08 714.59 594.19A.77.76-.9 0 0 715.27 593.49L715.51 590.15A.44.44 0 0 1 715.95 589.74M738.64 540.91 738.64 543.32A.83.82 74.6 0 1 738.24 544.03L736.53 545.01A.88.88 0 0 0 736.1 545.75Q735.65 568.63 736.23 587.5C736.5 596.33 751.32 598.13 751.62 587.23Q751.79 581.04 751.97 545.19A1.01 1.01 0 0 0 750.96 544.17L748.14 544.17A.68.68 0 0 1 747.46 543.49L747.46 541.13A.87.87 0 0 0 746.59 540.26L739.3 540.26A.66.65 0 0 0 738.64 540.91M781.07 540.81Q780.15 541.21 779.35 542.93A1.16 1.16 0 0 1 778.49 543.58C776.99 543.84 774.33 544.22 773.52 542.68Q773.06 541.83 772.52 541.33A1.8 1.78 70.3 0 0 771.56 540.87Q766.18 540.09 763.53 540.27C759.71 540.54 759.07 542.65 759.08 546.35Q759.1 575.52 758.98 581.25C758.86 587.52 758.97 594.31 766.6 594.75Q773.76 595.17 774.04 587.69 774.53 574.47 774.34 567.81 774.29 566.21 774.86 562.19A.62.61 79.4 0 1 775.17 561.73L778.85 559.6A1 .98 80.3 0 0 779.33 558.91L780.35 553.18A1.74 1.72 0 0 1 781.76 551.78C783.6 551.47 786.15 551.79 787.29 553.85Q788.35 555.77 791.27 556.38A2.32 2.31 2.8 0 1 793.09 558.38C794.18 567.8 793.32 577.71 793.33 587.2Q793.33 592.83 797.19 594.44C802.84 596.8 808.53 593.55 808.69 587.16Q809.05 572.95 808.24 553.86A1.26 1.25 4 0 0 807.21 552.68L804.13 552.14A1.25 1.24-89.1 0 1 803.12 551.09L802.42 546.52A2.01 2-88.1 0 0 800.88 544.87Q796.53 543.9 794.56 541.83A3.48 3.44-21.2 0 0 792.1 540.76L782.03 540.62A2.3 2.28-56 0 0 781.07 540.81M815.71 581.76 822.16 581.89A.81.81 0 0 1 822.95 582.61Q823.09 583.88 822.7 585.16A.68.68 0 0 0 823.41 586.03L829.61 585.45A.65.65 0 0 1 830.32 586.11L830.25 589.93A.98.98 0 0 0 831.21 590.93L845.79 591.21A.63.63 0 0 0 846.44 590.62L846.82 585.47A.99.98-8.3 0 1 847.47 584.61Q848.71 584.15 849.81 584.19A.95.94-.3 0 1 850.73 585.09L851.34 596.71A1.14 1.13-3 0 1 850.26 597.9L845.83 598.13A.9.9 0 0 0 844.98 598.96L844.8 601.5A.93.93 0 0 1 843.85 602.37L835.66 602.21A.93.92 87.9 0 1 834.75 601.36L834.5 598.66A.71.71 0 0 0 833.78 598.01Q830.71 598.02 827.56 597.61 826.27 597.44 826.74 595.56A.9.9 0 0 0 825.82 594.45L816.97 594.91A1.4 1.4 0 0 0 815.68 596Q814.85 599.81 815.84 603.16C816.23 604.48 817.91 604.99 818.7 605.98Q820.54 608.29 823.55 609.27A1.64 1.63-88.1 0 1 824.63 610.43L825.54 614.18A.57.55 84.3 0 0 826.05 614.61Q841.09 615.44 853.88 614.66A.72.71-89.1 0 0 854.55 614L854.91 609.12A.69.68.4 0 1 855.56 608.49Q855.9 608.46 859.34 608.62 861.39 608.72 861.73 606.49 862.04 604.43 862.73 601.38A1.16 1.11-12.9 0 1 863.18 600.7L865.23 599.22A1.11 1.09-16.1 0 0 865.68 598.42Q866.35 589.93 866.39 586.25 866.65 564.21 865.79 546.55A1.54 1.54 0 0 0 864.67 545.14Q862.45 544.52 861.54 541.8A1.73 1.73 0 0 0 859.93 540.62L855.71 540.54A1.59 1.58-74.2 0 0 854.31 541.33L853.25 543.16A1.1 1.09-73.9 0 1 852.27 543.71L846.85 543.61A.94.93 81.2 0 1 845.98 542.97Q845.56 541.76 845.08 541.26A1.84 1.81 71.4 0 0 843.99 540.71Q836.95 539.83 829.45 540.94C827.9 541.17 828.04 542.79 827.37 543.61A1.96 1.92 11.9 0 1 826.35 544.26L822.29 545.3A.92.9-4.9 0 0 821.6 546.11L821.33 549.82A1.64 1.64 0 0 1 820.07 551.31L816.72 552.13A.69.68 84.1 0 0 816.19 552.79L815.63 581.68A.08.08 0 0 0 815.71 581.76" data-c-stroke="7b7a7a"/><path stroke="#f49090" d="M920.3601 975.4329A1.4.36-179.3 0 0 921.7556 975.81 1.4.36-179.3 0 0 923.1599 975.4671 1.4.36-179.3 0 0 921.7644 975.09 1.4.36-179.3 0 0 920.3601 975.4329M933.15 976.19Q932.8 976.01 932.2 976.15A.37.36-36.2 0 0 932.09 976.82Q932.53 977.07 933.07 976.88A.39.37-39.8 0 0 933.15 976.19M977.41 977.18Q977.23 977.76 977.31 978.08A.23.23 0 0 0 977.75 978.09Q977.85 977.79 977.79 977.22A.19.19 0 0 0 977.41 977.18M974.08 978.81Q974.42 978.09 974.33 977.71A.26.26 0 0 0 973.87 977.61Q973.75 977.75 973.63 978.68A.24.24 0 0 0 974.08 978.81M966.55 979.39A.4.4 0 0 0 966.36 978.68Q965.59 978.57 965.34 979.01A.45.35-75.3 0 0 965.63 979.67Q966.31 979.57 966.55 979.39M961.35 978.96A.35.3 39.3 0 0 961.45 979.53Q962.15 979.84 962.33 979.54C962.73 978.9 961.58 978.83 961.35 978.96" data-c-stroke="d5baa8" stroke-opacity="0"/><path stroke="#5b412f" d="M 322.9905 393.3754 A 1.02 1.02 0.0 0 0 321.9758 392.3501 L 306.6760 392.2700 A 1.02 1.02 0.0 0 0 305.6507 393.2846 L 305.6295 397.3246 A 1.02 1.02 0.0 0 0 306.6442 398.3499 L 321.9440 398.4300 A 1.02 1.02 0.0 0 0 322.9693 397.4154 L 322.9905 393.3754" data-c-stroke="5b412f"/><path stroke="#7b7a7a" d="M 396.69 540.33 L 396.69 548.16 A 0.73 0.72 -90.0 0 1 395.97 548.89 L 390.14 548.89 A 1.24 1.23 -0.0 0 0 388.90 550.12 L 388.90 555.12 A 1.15 1.14 -90.0 0 1 387.76 556.27 L 380.89 556.27 A 1.38 1.38 0.0 0 1 379.51 554.89 L 379.51 552.29 A 0.93 0.93 0.0 0 0 378.58 551.36 L 372.01 551.36 A 0.88 0.87 -84.9 0 0 371.15 552.08 L 370.65 554.88 A 0.82 0.82 0.0 0 1 369.84 555.56 L 367.19 555.56 A 1.93 1.93 0.0 0 0 365.36 556.88 L 365.19 557.43 A 1.25 1.25 0.0 0 0 366.34 559.03 C 371.90 559.27 373.93 559.51 378.05 563.54 A 1.91 1.90 16.9 0 1 378.61 564.58 Q 379.41 569.02 378.56 574.06 A 0.92 0.92 0.0 0 1 377.59 574.82 L 367.59 574.09 A 1.72 1.71 -8.9 0 1 366.13 573.03 Q 365.06 570.40 360.94 570.86 A 0.59 0.59 0.0 0 0 360.42 571.41 L 359.80 579.82 A 1.41 1.41 0.0 0 1 358.39 581.13 L 353.82 581.13 A 0.94 0.94 0.0 0 0 352.88 582.07 L 352.88 585.24 A 1.04 1.04 0.0 0 0 353.92 586.28 L 463.41 586.28 A 0.71 0.71 0.0 0 0 464.12 585.57 L 464.12 581.12 A 0.59 0.59 0.0 0 1 464.71 580.53 L 469.76 580.53 A 1.25 1.25 0.0 0 0 471.01 579.28 L 471.01 573.38 A 0.66 0.65 -87.6 0 1 471.72 572.72 L 476.08 573.03 A 0.72 0.72 0.0 0 0 476.86 572.31 L 476.86 564.35 A 0.68 0.68 0.0 0 1 477.66 563.68 L 480.20 564.13 A 1.51 1.50 5.0 0 0 481.97 562.65 L 481.97 558.15 A 0.58 0.58 0.0 0 1 482.55 557.57 L 487.13 557.57 A 0.67 0.67 0.0 0 0 487.80 556.90 L 487.80 552.06 A 0.49 0.49 0.0 0 1 488.33 551.57 L 491.59 551.81 A 0.96 0.96 0.0 0 0 492.60 550.71 L 491.86 545.89 A 0.41 0.41 0.0 0 1 492.26 545.42 L 497.24 545.42 A 0.66 0.66 0.0 0 0 497.90 544.76 L 497.90 540.26 A 0.84 0.83 90.0 0 1 498.73 539.42 L 503.86 539.42 A 0.47 0.46 2.0 0 0 504.33 538.99 L 504.69 533.97 A 0.55 0.55 0.0 0 0 504.14 533.37 L 405.32 533.37 A 0.90 0.89 -90.0 0 0 404.43 534.27 L 404.43 539.23 A 0.63 0.62 -0.0 0 1 403.80 539.85 L 397.17 539.85 A 0.48 0.48 0.0 0 0 396.69 540.33" data-c-stroke="7b7a7a"/><path stroke="#7b7a7a" d="M 491.69 568.68 L 491.69 574.65 A 0.53 0.53 0.0 0 1 491.10 575.18 L 487.35 574.72 A 0.71 0.71 0.0 0 0 486.56 575.53 L 487.35 580.69 A 1.07 1.06 85.6 0 1 486.30 581.92 L 480.17 581.92 A 0.53 0.52 -90.0 0 0 479.65 582.45 L 479.65 592.83 A 0.62 0.62 0.0 0 1 478.98 593.45 L 473.15 593.03 A 0.57 0.57 0.0 0 0 472.53 593.60 L 472.53 598.97 A 0.55 0.55 0.0 0 1 471.98 599.52 L 335.20 599.52 A 0.40 0.39 -0.0 0 0 334.80 599.91 L 334.80 604.32 A 0.58 0.57 -87.7 0 1 334.18 604.90 L 331.04 604.67 A 1.57 1.56 5.6 0 0 329.37 606.04 L 329.26 606.96 A 1.68 1.68 0.0 0 0 330.93 608.84 L 480.49 608.84 A 1.04 1.04 0.0 0 0 481.53 607.80 L 481.53 601.80 A 0.49 0.49 0.0 0 1 482.02 601.31 L 487.71 601.31 A 0.73 0.72 90.0 0 0 488.43 600.58 L 488.43 595.43 A 0.62 0.61 1.8 0 1 489.09 594.82 L 492.44 595.07 A 0.71 0.71 0.0 0 0 493.20 594.36 L 493.20 588.11 A 0.80 0.80 0.0 0 1 494.00 587.31 L 498.21 587.31 A 0.65 0.65 0.0 0 0 498.86 586.66 L 498.86 581.11 A 0.60 0.59 -0.0 0 1 499.46 580.52 L 504.48 580.52 A 0.70 0.70 0.0 0 0 505.18 579.82 L 505.18 573.63 A 0.64 0.64 0.0 0 1 505.87 572.99 L 510.54 573.33 A 0.57 0.57 0.0 0 0 511.15 572.76 L 511.15 565.59 A 0.63 0.63 0.0 0 1 511.96 564.99 Q 513.65 565.53 514.99 565.33 A 0.66 0.66 0.0 0 0 515.54 564.58 L 514.65 558.69 A 0.66 0.66 0.0 0 1 515.44 557.94 Q 517.43 558.36 519.52 557.90 A 0.82 0.82 0.0 0 0 520.17 557.10 L 520.17 551.72 A 0.41 0.40 -90.0 0 1 520.57 551.31 L 525.82 551.31 A 0.72 0.72 0.0 0 0 526.54 550.63 Q 526.71 547.45 525.76 544.93 A 0.52 0.52 0.0 0 1 526.25 544.22 L 530.64 544.22 A 0.70 0.69 2.2 0 0 531.34 543.58 L 531.67 538.99 A 1.08 1.07 87.7 0 1 532.58 538.00 L 535.54 537.55 A 0.88 0.87 -85.7 0 0 536.25 536.93 Q 536.64 535.60 536.44 534.02 A 0.83 0.82 -3.5 0 0 535.62 533.30 L 521.03 533.30 A 0.81 0.80 -4.3 0 0 520.23 534.22 L 520.97 539.04 A 0.56 0.56 0.0 0 1 520.42 539.68 L 516.51 539.68 A 0.91 0.90 0.0 0 0 515.60 540.58 L 515.60 547.06 A 1.30 1.29 90.0 0 1 514.31 548.36 L 509.24 548.36 A 0.51 0.51 0.0 0 0 508.73 548.87 L 508.73 555.08 A 0.57 0.57 0.0 0 1 508.16 555.65 L 503.34 555.65 A 0.58 0.57 -87.8 0 0 502.77 556.19 L 502.42 560.91 A 0.74 0.74 0.0 0 1 501.62 561.60 L 499.37 561.44 A 0.84 0.84 0.0 0 0 498.47 562.28 L 498.47 567.86 A 0.66 0.66 0.0 0 1 497.76 568.52 L 492.29 568.12 A 0.56 0.56 0.0 0 0 491.69 568.68" data-c-stroke="7b7a7a"/><path stroke="#5b412f" d="M 332.74 445.69 A 0.80 0.79 89.3 0 0 333.53 446.47 L 344.65 446.47 A 1.22 1.21 90.0 0 0 345.86 445.25 L 345.86 432.22 A 0.83 0.83 0.0 0 0 345.20 431.41 Q 340.01 430.27 334.85 431.57 A 1.72 1.61 18.2 0 0 334.27 431.84 L 329.23 435.47 A 0.66 0.63 -14.6 0 0 328.97 435.89 Q 328.58 438.03 329.07 439.91 A 0.83 0.83 0.0 0 0 329.77 440.53 Q 331.44 440.76 332.15 441.37 A 1.38 1.36 -71.1 0 1 332.63 442.37 L 332.74 445.69" data-c-stroke="5b412f"/><path stroke="#7b7a7a" d="M417.41 556.26A.6.6 0 0 0 418.02 555.66L418.02 551.89A.6.6 0 0 1 418.62 551.29L425.43 551.29A.6.6 0 0 0 426.02 550.76L427.22 540.89A.6.6 0 0 0 426.62 540.22L409.12 540.22A.6.6 0 0 0 408.52 540.82L408.52 546.13A.6.6 0 0 1 407.85 546.73L404.25 546.29A.6.6 0 0 0 403.58 546.87L403.42 555.39A.6.6 0 0 0 404.01 556L417.41 556.26M438.9 541.14C439.75 543.87 438.97 544.78 436.02 544.67Q433.7 544.59 432.6 544.58A.67.67 0 0 0 431.93 545.25L431.93 555.02A.84.84 0 0 0 432.77 555.86L446.14 555.86A.62.61-84.9 0 0 446.74 555.35L447.3 552.17A.94.92 2 0 1 448.13 551.41L453.98 550.87A.86.86 0 0 0 454.75 550.09L455.36 541.65A1.13 1.12-87.9 0 0 454.24 540.44L439.41 540.44A.54.54 0 0 0 438.9 541.14M471.94 556.13A.35.35 0 0 0 472.3 555.78L472.3 551.79A.59.59 0 0 1 472.89 551.2L479.16 551.2A1.07 1.06 90 0 0 480.22 550.13L480.22 540.91A.62.62 0 0 0 479.6 540.29L466.25 540.29A.7.7 0 0 0 465.55 541Q465.6 544.8 465.08 545.72A1 1 0 0 1 464.22 546.24L461.29 546.29A.96.96 0 0 0 460.35 547.23L460.21 554.8A1.11 1.1-89 0 0 461.29 555.93L471.94 556.13M404.15 571.32 407.83 571.59A.89.89 0 0 0 408.79 570.7L408.79 562.97A1.39 1.39 0 0 0 407.4 561.58L395.02 561.58A.89.88-84.9 0 0 394.15 562.32L393.72 564.74A1.14 1.12-84.3 0 1 392.59 565.68Q390.1 565.65 389.47 567.68C388.91 569.47 388.06 569.86 386.49 570.63A1.71 1.7 79.1 0 0 385.54 572.04L385.19 576.93A.73.72 2.2 0 0 385.92 577.71L402.61 577.71A1.3 1.29-2.6 0 0 403.9 576.3L403.5 571.98A.61.6-.8 0 1 404.15 571.32M426.56 575.03 430.66 575.76A.6.6 0 0 0 431.36 575.17L431.36 570.87A.84.83-2.6 0 1 432.12 570.04L435.75 569.71A.84.82 3.3 0 0 436.48 569.07Q437.22 565.77 436.41 562.34A1 .98 83.3 0 0 435.45 561.57L419.63 561.57A.71.71 0 0 0 418.92 562.28L418.92 568.04A1.09 1.09 0 0 1 417.64 569.11L414.6 568.57A.91.9-85 0 0 413.54 569.47L413.54 576.51A1.03 1.03 0 0 0 414.57 577.54L425 577.54A.68.67-90 0 0 425.67 576.86L425.67 575.77A.76.75 4.9 0 1 426.56 575.03M441.43 577.67 455.16 577.67A.7.7 0 0 0 455.86 576.97L455.86 572.74A.79.79 0 0 1 456.65 571.95L462.87 571.95A1.47 1.47 0 0 0 464.34 570.48L464.34 563.25A1.76 1.76 0 0 0 462.49 561.49L449.17 562.18A1.7 1.7 0 0 0 447.66 563.31Q446.96 565.29 445.14 565.39A2.14 2.13 13 0 0 443.41 566.47Q440.78 571.14 440.88 577.13A.55.55 0 0 0 441.43 577.67M707.67 556.5A.66.66 0 0 1 707.01 555.79L707.28 552.14A.66.66 0 0 0 706.59 551.43L699.35 551.81A.66.66 0 0 0 698.72 552.5L699.01 557.93A.66.66 0 0 1 698.23 558.62L692.88 557.67A.66.66 0 0 0 692.1 558.32L692.1 572.53A.66.66 0 0 0 692.71 573.18L697.78 573.56A.66.66 0 0 1 698.39 574.18L698.74 580.93A.66.66 0 0 0 699.43 581.56L706.33 581.19A.66.66 0 0 0 706.96 580.5L706.71 575.76A.66.66 0 0 1 707.42 575.06L713.41 575.5A.66.66 0 0 0 714.12 574.84L714.12 557.16A.66.66 0 0 0 713.46 556.5L707.67 556.5M837.58 573.93 837.73 575.52A.87.87 0 0 0 838.68 576.31L844.53 575.77A1.13 1.1 19.1 0 0 845.21 575.45Q846.56 574.1 845.93 570.65A.7.7 0 0 1 846.62 569.82L849.45 569.82A1.15 1.15 0 0 0 850.58 568.9Q851.63 563.73 850.78 558.09A1.68 1.67-89.3 0 0 849.42 556.69L846.61 556.19A1.31 1.3 89 0 1 845.55 555.16Q845.23 553.59 844.42 552.56A1.41 1.4 75.2 0 0 843.5 552.02Q839.84 551.51 836.62 552.03C835.12 552.27 834.71 553.54 834.47 554.85A1.54 1.5-18.6 0 1 834.06 555.65Q833.24 556.5 831.98 556.92A1.42 1.41-5.3 0 0 831.04 558.04Q830 565.01 830.58 572.64A.86.86 0 0 0 831.44 573.44L837.04 573.44A.54.53-2.3 0 1 837.58 573.93" data-c-stroke="7b7a7a"/></g><path fill="#f49090" d="M 1000.00 0.00 L 1000.00 1000.00 L 0.00 1000.00 L 0.00 0.00 L 1000.00 0.00 Z M 164.58 594.52 Q 166.31 595.06 167.72 596.77 C 169.57 599.01 172.33 598.76 174.55 599.42 Q 181.74 601.56 191.83 606.27 A 16.28 15.98 64.0 0 0 194.68 607.28 C 198.18 608.14 200.74 608.94 204.95 609.40 Q 213.30 610.31 221.66 611.24 Q 221.70 613.26 222.63 614.93 A 1.53 1.49 86.1 0 0 223.38 615.60 Q 225.25 616.37 227.70 616.59 A 0.70 0.69 1.0 0 1 228.34 617.24 L 228.59 622.04 A 1.45 1.45 0.0 0 0 230.04 623.42 L 274.70 623.42 A 0.75 0.75 0.0 0 0 275.45 622.67 L 275.45 620.32 A 1.12 1.12 0.0 0 1 276.48 619.20 Q 279.04 619.00 279.81 618.43 A 1.51 1.50 -14.0 0 0 280.38 617.49 Q 281.13 613.07 280.39 609.97 A 1.76 1.76 0.0 0 0 278.65 608.62 L 266.57 608.78 L 264.55 608.55 A 0.69 0.66 4.5 0 1 263.93 607.86 L 263.93 607.83 A 0.63 0.63 0.0 0 1 264.52 607.22 Q 270.97 606.81 272.49 606.50 Q 274.73 606.03 275.48 604.12 Q 276.12 602.47 278.05 602.21 Q 280.23 601.93 282.48 601.13 A 1.30 1.28 1.5 0 0 283.22 600.44 L 284.57 597.31 A 1.33 1.29 -4.7 0 1 285.06 596.75 C 288.22 594.80 290.26 594.80 293.17 593.73 A 1.04 1.03 86.8 0 0 293.82 593.00 Q 294.68 589.49 297.98 587.48 A 1.59 1.56 89.5 0 0 298.52 586.92 L 301.06 582.53 A 1.60 1.54 -87.9 0 1 301.69 581.92 L 304.93 580.24 A 2.22 2.15 -84.0 0 0 305.60 579.68 Q 307.97 576.75 311.12 575.57 Q 327.61 570.30 345.03 571.72 A 0.74 0.74 0.0 0 1 345.71 572.54 L 345.28 576.05 A 0.74 0.73 3.5 0 1 344.55 576.69 L 339.30 576.69 A 1.05 1.04 -9.4 0 0 338.31 578.07 Q 339.35 581.16 337.48 581.25 Q 334.68 581.38 333.42 581.25 A 0.53 0.53 0.0 0 0 332.84 581.83 L 333.27 586.55 A 0.74 0.73 -5.4 0 1 332.60 587.35 L 328.28 587.75 A 1.47 1.45 88.0 0 0 326.96 589.18 Q 326.88 593.71 323.48 594.22 C 321.86 594.46 322.05 596.12 321.71 597.38 A 1.29 1.29 0.0 0 1 321.02 598.22 L 318.30 599.55 A 0.86 0.84 0.8 0 0 317.92 599.91 L 315.42 604.22 A 1.08 1.02 -87.1 0 1 314.98 604.64 Q 312.21 606.06 311.16 609.03 A 3.01 2.98 84.9 0 1 309.84 610.62 L 307.58 611.92 A 2.86 2.85 -9.3 0 0 306.22 613.80 Q 305.22 618.72 305.71 622.57 A 0.73 0.71 89.9 0 0 306.33 623.20 Q 309.53 623.63 309.93 623.63 Q 341.16 623.54 475.25 623.58 Q 482.74 623.58 489.49 623.13 A 0.69 0.69 0.0 0 0 490.14 622.44 L 490.14 616.33 A 0.34 0.34 0.0 0 1 490.45 615.99 L 496.45 615.44 A 0.71 0.71 0.0 0 0 497.09 614.73 L 497.09 608.97 A 0.41 0.41 0.0 0 1 497.50 608.56 L 501.50 608.56 A 1.02 1.01 0.0 0 0 502.52 607.55 L 502.52 599.23 A 0.56 0.56 0.0 0 1 503.21 598.69 Q 505.84 599.33 508.29 599.07 A 1.02 1.01 -5.8 0 0 509.19 597.97 L 508.62 591.83 A 0.43 0.43 0.0 0 1 509.05 591.36 L 513.99 591.36 A 0.93 0.93 0.0 0 0 514.92 590.46 L 515.22 582.52 A 0.61 0.60 -1.1 0 1 515.78 581.94 Q 516.19 581.91 518.51 581.80 Q 520.93 581.68 520.57 579.27 Q 520.50 578.78 520.62 574.86 A 0.67 0.66 0.4 0 1 521.29 574.21 L 526.46 574.21 A 0.71 0.70 87.4 0 0 527.16 573.44 L 526.59 567.28 A 0.92 0.92 0.0 0 1 527.69 566.29 Q 531.71 567.09 531.65 565.03 Q 531.59 562.98 531.89 561.55 A 0.81 0.79 81.0 0 1 532.27 561.01 L 535.08 559.39 A 0.73 0.72 -15.0 0 0 535.45 558.76 L 535.45 556.34 A 0.71 0.70 83.3 0 1 535.98 555.65 L 538.97 554.93 A 0.96 0.96 0.0 0 0 539.68 554.17 L 540.50 549.51 A 0.95 0.94 -2.0 0 1 541.20 548.77 L 543.28 548.27 A 1.76 1.75 -1.8 0 0 544.60 546.87 L 545.66 540.86 A 0.71 0.70 -2.0 0 1 546.19 540.30 L 549.94 539.39 A 0.56 0.55 -2.6 0 0 550.35 538.95 L 551.14 534.51 A 0.92 0.91 88.5 0 1 551.82 533.79 L 554.20 533.21 A 1.84 1.83 -89.7 0 0 555.55 531.87 Q 556.42 528.39 556.27 524.36 C 556.04 518.39 549.64 518.65 545.25 518.66 Q 509.48 518.73 471.50 518.75 C 436.04 518.77 423.02 518.43 399.73 519.22 A 0.59 0.59 0.0 0 0 399.17 519.74 L 398.70 523.63 A 0.77 0.77 0.0 0 1 397.85 524.30 L 394.54 523.90 A 0.76 0.76 0.0 0 0 393.69 524.65 L 393.69 528.94 A 0.75 0.75 0.0 0 1 392.94 529.69 L 387.81 529.69 A 1.11 1.10 90.0 0 0 386.71 530.80 L 386.71 539.81 A 0.96 0.96 0.0 0 1 385.75 540.77 L 381.28 540.77 A 1.02 1.02 0.0 0 1 380.26 539.75 L 380.26 537.14 A 0.71 0.71 0.0 0 0 379.57 536.43 L 374.51 536.22 L 374.26 531.42 A 2.38 2.38 0.0 0 0 372.45 529.23 C 371.03 528.87 367.82 528.16 367.09 526.21 Q 366.35 524.25 365.60 523.52 A 1.04 1.02 -14.6 0 0 365.18 523.28 L 362.34 522.41 A 2.93 2.85 75.4 0 1 361.15 521.69 Q 358.74 519.28 355.13 517.94 A 1.61 1.60 85.0 0 1 354.30 517.24 Q 353.37 515.58 353.09 512.89 Q 365.56 509.35 378.90 509.02 A 0.66 0.66 0.0 0 0 379.53 508.44 L 379.96 504.86 A 1.28 1.27 0.8 0 1 381.12 503.74 L 388.10 503.09 A 0.62 0.60 86.1 0 0 388.65 502.44 L 388.41 497.77 A 1.10 1.10 0.0 0 1 389.51 496.61 L 396.32 496.61 A 0.74 0.74 0.0 0 0 397.02 495.64 Q 396.51 494.07 396.72 491.89 A 0.58 0.58 0.0 0 1 397.16 491.38 L 403.12 489.93 A 1.36 1.34 1.4 0 0 404.11 489.00 L 408.23 475.52 A 0.90 0.89 -7.2 0 1 408.64 475.00 L 411.75 473.20 A 1.02 1.01 78.1 0 0 412.26 472.41 Q 413.93 456.87 412.27 440.73 A 0.70 0.69 -87.9 0 0 411.70 440.11 L 408.21 439.49 A 1.70 1.69 -89.5 0 1 406.83 438.08 L 406.09 433.19 A 1.06 1.05 -0.7 0 0 405.18 432.31 L 397.41 431.37 A 0.73 0.72 -83.3 0 1 396.78 430.56 L 397.07 428.15 A 0.84 0.83 6.8 0 0 396.33 427.22 L 390.41 426.50 A 0.90 0.90 0.0 0 1 389.62 425.61 L 389.62 420.42 A 1.03 1.03 0.0 0 0 388.59 419.39 L 380.13 419.39 A 0.50 0.49 0.0 0 1 379.63 418.90 L 379.63 414.68 A 0.58 0.58 0.0 0 0 379.09 414.10 L 371.44 413.54 A 1.07 1.06 2.0 0 1 370.45 412.48 L 370.45 409.25 A 0.60 0.59 88.2 0 0 369.82 408.65 Q 367.24 408.84 364.30 408.17 Q 362.93 407.86 362.90 405.50 A 1.91 1.89 4.8 0 0 361.33 403.66 L 354.40 402.43 A 0.90 0.88 81.7 0 1 353.76 401.94 Q 353.18 400.73 353.12 400.05 A 0.90 0.90 0.0 0 0 352.31 399.23 Q 343.74 398.36 334.04 398.49 C 331.95 398.52 331.80 395.93 329.75 395.21 A 0.09 0.09 0.0 0 1 329.75 395.05 L 332.01 394.17 A 1.21 1.20 1.2 0 0 332.66 393.55 Q 333.52 391.55 333.25 388.22 A 0.51 0.51 0.0 0 0 332.74 387.74 L 324.54 387.74 A 0.68 0.67 87.2 0 1 323.87 387.13 L 323.41 382.19 A 0.43 0.42 -2.2 0 0 322.98 381.80 L 317.01 381.80 A 0.99 0.99 0.0 0 1 316.17 381.33 Q 315.49 380.22 315.89 377.66 A 0.66 0.66 0.0 0 0 315.24 376.90 L 301.56 376.90 A 0.75 0.74 3.5 0 0 300.82 377.55 L 300.39 381.18 A 0.72 0.71 -87.6 0 1 299.72 381.80 L 292.58 382.17 A 0.66 0.66 0.0 0 0 291.95 382.83 L 291.95 387.46 A 0.95 0.95 0.0 0 1 290.96 388.41 Q 284.63 388.14 277.44 389.20 C 275.56 389.48 275.88 391.43 274.90 392.39 Q 274.08 393.18 270.98 393.61 A 1.33 1.32 1.2 0 0 269.85 394.69 L 268.68 401.33 A 1.16 1.13 81.1 0 1 268.12 402.12 L 265.65 403.55 A 1.23 1.21 -12.0 0 0 265.04 404.47 L 263.37 418.32 A 0.73 0.72 89.5 0 1 262.76 418.95 L 259.70 419.42 A 0.79 0.78 -4.3 0 0 259.03 420.19 L 259.03 425.98 A 1.06 1.05 -2.7 0 1 258.07 427.03 L 253.55 427.45 A 0.79 0.79 0.0 0 0 252.83 428.18 L 252.38 434.33 A 0.79 0.79 0.0 0 1 251.70 435.06 L 247.23 435.75 A 0.81 0.81 0.0 0 0 246.54 436.46 L 245.87 441.99 A 0.93 0.91 86.8 0 1 245.18 442.77 L 239.41 444.17 A 1.06 1.05 7.8 0 0 238.77 444.65 L 238.40 445.29 A 1.62 1.61 -81.5 0 1 237.37 446.06 L 230.15 447.82 A 0.97 0.95 1.5 0 0 229.46 448.46 Q 229.04 449.79 228.22 450.81 A 1.55 1.51 -72.8 0 1 227.17 451.38 L 211.85 452.80 A 0.65 0.65 0.0 0 0 211.25 453.45 L 211.25 458.43 A 0.74 0.74 0.0 0 1 210.55 459.17 L 199.07 459.77 A 0.55 0.54 88.9 0 0 198.55 460.32 L 198.55 464.90 A 1.12 1.11 -2.8 0 1 197.54 466.01 L 192.34 466.49 A 0.75 0.75 0.0 0 0 191.66 467.15 L 191.28 470.26 A 1.03 1.01 -88.9 0 1 190.36 471.16 L 187.02 471.47 A 0.46 0.46 0.0 0 0 186.66 471.70 L 185.26 474.12 A 0.85 0.85 0.0 0 1 184.60 474.54 L 181.23 474.85 A 0.99 0.98 -3.2 0 0 180.34 475.84 Q 180.37 477.45 179.94 478.46 A 1.21 1.20 -85.0 0 1 179.11 479.16 L 174.22 480.35 A 0.80 0.79 86.0 0 0 173.61 481.06 L 173.12 487.27 A 1.02 0.99 79.4 0 1 172.58 488.08 Q 171.73 488.53 169.33 488.57 A 1.17 1.16 -88.1 0 0 168.18 489.65 L 167.85 494.22 A 0.77 0.76 89.6 0 1 167.16 494.93 L 163.57 495.26 A 0.86 0.85 -87.8 0 0 162.81 495.97 Q 162.55 497.64 162.59 498.79 Q 162.65 500.96 160.17 500.66 A 0.61 0.60 8.2 0 0 159.51 501.15 L 158.34 507.74 A 1.67 1.65 81.9 0 1 157.46 508.92 Q 155.49 509.93 154.93 510.94 A 2.54 2.47 -27.4 0 0 154.61 511.90 Q 153.84 518.41 152.10 523.50 C 151.38 525.61 148.99 524.38 148.63 527.76 Q 146.65 546.30 148.85 564.35 A 1.21 1.20 -75.5 0 0 149.34 565.19 Q 149.70 565.45 150.30 565.51 C 154.28 565.89 153.51 577.02 153.22 580.04 A 1.04 1.03 -1.5 0 1 152.34 580.96 L 148.10 581.61 A 0.57 0.56 -2.6 0 0 147.62 582.13 L 147.37 585.52 A 0.98 0.97 88.2 0 1 146.54 586.41 L 141.43 587.19 A 1.31 1.30 4.0 0 0 140.39 588.09 L 138.92 592.93 A 1.10 1.05 -7.8 0 1 138.46 593.51 Q 137.44 594.11 135.23 594.40 A 0.74 0.74 0.0 0 0 134.62 594.95 Q 133.24 600.51 134.24 607.29 A 2.89 2.88 11.0 0 0 135.65 609.37 L 138.78 611.18 A 1.06 1.00 1.0 0 1 139.17 611.56 L 141.12 614.95 A 0.88 0.87 83.1 0 0 141.60 615.33 L 146.46 616.81 A 1.02 1.00 4.7 0 1 147.17 617.63 L 147.80 621.75 A 1.45 1.44 88.4 0 0 149.08 622.97 Q 159.82 624.08 169.81 623.04 A 1.02 1.01 2.3 0 0 170.70 622.22 Q 171.74 616.35 171.07 610.44 A 1.32 1.32 0.0 0 0 169.85 609.27 Q 163.35 608.82 158.17 608.41 Q 155.20 608.18 152.97 606.73 C 151.13 605.54 150.39 605.28 148.58 604.81 A 2.67 2.17 -75.5 0 1 147.15 601.69 C 147.69 599.61 150.39 599.62 152.45 599.05 A 1.06 1.06 0.0 0 0 153.06 598.57 L 154.65 595.83 A 0.79 0.76 -77.5 0 1 155.24 595.44 L 164.58 594.52 Z M 736.0449 520.7959 A 8.91 8.41 -151.7 0 0 739.9029 532.4248 A 8.91 8.41 -151.7 0 0 751.7351 529.2441 A 8.91 8.41 -151.7 0 0 747.8771 517.6152 A 8.91 8.41 -151.7 0 0 736.0449 520.7959 Z M 587.39 553.83 A 0.98 0.97 -0.0 0 1 588.37 554.80 L 588.37 589.50 A 1.05 1.05 0.0 0 0 589.40 590.55 L 595.90 590.68 A 0.93 0.93 0.0 0 1 596.81 591.47 L 597.13 593.54 A 0.92 0.91 87.3 0 0 597.98 594.32 C 605.95 594.76 616.28 595.17 615.13 584.48 C 614.91 582.43 615.14 580.89 612.75 580.96 Q 608.02 581.10 604.85 580.81 A 0.98 0.97 2.6 0 1 603.96 579.84 L 603.96 554.92 A 0.88 0.88 0.0 0 1 604.84 554.04 L 612.12 554.04 A 1.41 1.41 0.0 0 0 613.53 552.66 L 613.74 541.51 A 0.84 0.84 0.0 0 0 612.91 540.65 L 604.82 540.49 A 0.81 0.80 87.6 0 1 604.03 539.76 L 603.18 530.56 A 1.43 1.42 -70.5 0 0 602.77 529.69 L 598.94 525.86 A 1.81 1.67 75.4 0 0 598.30 525.45 Q 595.55 524.45 592.38 525.83 C 588.23 527.65 588.41 535.85 588.38 539.52 A 0.69 0.68 -2.8 0 1 587.76 540.20 L 580.97 540.83 A 0.84 0.83 -2.3 0 0 580.21 541.65 L 580.00 552.17 A 1.63 1.63 0.0 0 0 581.63 553.83 L 587.39 553.83 Z M 628.76 539.98 Q 624.18 539.82 620.67 543.26 A 2.15 2.14 67.8 0 0 620.03 544.79 L 620.03 555.65 A 0.69 0.68 0.0 0 0 620.72 556.33 L 625.52 556.33 A 0.40 0.40 0.0 0 1 625.92 556.71 L 626.72 572.13 A 0.38 0.37 -87.2 0 0 627.03 572.48 L 630.96 573.17 A 0.99 0.98 89.5 0 1 631.75 573.95 L 633.16 580.59 A 1.30 1.30 0.0 0 0 633.95 581.54 Q 634.17 581.62 634.44 581.70 A 1.01 1.01 0.0 0 1 635.15 582.51 L 636.38 590.61 A 0.77 0.76 83.8 0 0 637.18 591.26 Q 639.22 591.14 639.56 592.36 A 0.64 0.54 -58.7 0 1 639.59 592.55 L 639.59 596.24 A 0.80 0.79 81.6 0 1 639.03 597.00 C 636.27 597.84 632.89 598.15 631.06 599.57 C 628.51 601.55 626.00 599.95 624.22 603.94 A 1.12 1.11 7.9 0 1 623.37 604.58 L 622.37 604.74 A 1.77 1.75 -88.6 0 0 620.90 606.15 Q 619.92 611.21 620.61 614.36 A 0.99 0.98 -4.6 0 0 621.52 615.13 Q 631.04 615.69 641.83 614.42 A 1.39 1.39 0.0 0 0 643.04 613.28 L 643.77 609.16 A 0.98 0.97 0.4 0 1 644.58 608.37 L 648.63 607.75 A 0.89 0.88 -88.0 0 0 649.36 607.06 L 650.65 600.94 A 1.23 1.21 79.6 0 1 651.19 600.14 Q 651.75 599.77 652.95 599.64 A 1.03 1.02 0.3 0 0 653.86 598.75 L 654.61 592.56 A 1.07 1.07 0.0 0 1 655.52 591.62 L 656.95 591.40 A 0.95 0.94 88.1 0 0 657.75 590.54 L 658.64 579.70 A 0.66 0.65 -22.0 0 1 658.80 579.33 Q 659.41 578.60 661.64 578.70 A 1.09 1.09 0.0 0 0 662.79 577.68 L 663.60 566.58 A 0.72 0.72 0.0 0 1 664.28 565.92 L 668.15 565.72 A 0.65 0.65 0.0 0 0 668.76 565.12 L 669.73 551.73 A 0.70 0.67 -22.7 0 1 669.90 551.34 Q 670.61 550.51 672.05 550.38 A 0.87 0.86 -84.6 0 0 672.81 549.74 Q 673.36 547.64 673.11 545.83 A 0.99 0.98 89.6 0 0 672.25 544.98 L 668.93 544.58 A 1.10 1.10 0.0 0 1 667.98 543.66 L 667.55 540.80 A 0.71 0.70 -5.9 0 0 666.82 540.21 L 660.16 540.56 A 1.32 1.32 0.0 0 0 658.92 541.65 L 657.79 548.01 A 0.84 0.83 0.4 0 1 657.09 548.69 L 656.09 548.84 A 0.78 0.78 0.0 0 0 655.43 549.52 L 654.54 556.90 A 0.72 0.71 -84.5 0 1 653.78 557.53 L 649.95 557.25 A 0.61 0.60 1.3 0 0 649.30 557.87 Q 649.60 565.53 648.54 572.52 A 0.95 0.95 0.0 0 1 647.93 573.26 Q 646.90 573.63 645.41 573.26 A 0.73 0.73 0.0 0 1 644.87 572.66 L 644.29 568.85 A 1.36 1.18 25.8 0 0 644.08 568.36 L 642.98 566.83 A 1.17 1.14 27.3 0 1 642.75 566.14 L 642.75 560.40 A 0.68 0.68 0.0 0 0 642.03 559.72 L 637.92 559.93 A 0.75 0.74 -86.3 0 1 637.15 559.05 L 638.23 552.94 A 0.79 0.79 0.0 0 0 637.45 552.01 L 633.36 552.01 A 0.58 0.58 0.0 0 1 632.79 551.33 L 633.85 545.35 A 0.67 0.67 0.0 0 0 633.19 544.56 L 630.74 544.56 A 1.53 1.52 -87.9 0 1 629.22 542.92 L 629.38 540.68 A 0.65 0.65 0.0 0 0 628.76 539.98 Z M 715.95 589.74 L 722.17 589.74 A 0.90 0.90 0.0 0 0 723.07 588.84 L 723.07 582.51 A 0.69 0.69 0.0 0 1 723.65 581.83 L 728.31 581.12 A 0.73 0.72 85.9 0 0 728.93 580.40 L 728.93 553.01 A 0.87 0.86 -87.9 0 0 728.13 552.14 L 723.62 551.82 A 0.66 0.66 0.0 0 1 723.01 551.16 L 723.01 546.10 A 0.94 0.93 5.2 0 0 722.24 545.18 L 716.09 544.09 A 0.88 0.86 -4.7 0 1 715.43 543.54 Q 715.16 542.81 715.22 541.64 A 1.37 1.37 0.0 0 0 713.85 540.20 L 699.09 540.20 A 1.15 1.14 9.7 0 0 698.01 540.96 Q 697.71 541.80 697.85 543.72 A 0.88 0.88 0.0 0 1 696.97 544.66 L 692.22 544.66 A 0.79 0.79 0.0 0 1 691.44 543.99 L 691.03 541.30 A 0.92 0.92 0.0 0 0 690.12 540.52 L 681.59 540.52 A 1.54 1.54 0.0 0 0 680.10 542.45 Q 680.76 544.95 678.48 544.67 A 1.23 1.23 0.0 0 0 677.10 545.82 Q 677.01 547.41 676.70 562.00 Q 676.61 566.16 676.70 609.25 Q 676.71 614.40 681.67 615.26 C 684.74 615.79 689.79 615.72 691.35 612.76 Q 692.42 610.72 692.32 606.97 Q 692.04 596.46 692.16 590.80 A 1.35 1.35 0.0 0 1 693.51 589.48 L 696.73 589.48 A 1.18 1.18 0.0 0 1 697.90 590.83 Q 697.72 592.12 698.10 593.61 A 0.91 0.91 0.0 0 0 698.88 594.28 Q 706.76 595.08 714.59 594.19 A 0.77 0.76 -0.9 0 0 715.27 593.49 L 715.51 590.15 A 0.44 0.44 0.0 0 1 715.95 589.74 Z M 738.64 540.91 L 738.64 543.32 A 0.83 0.82 74.6 0 1 738.24 544.03 L 736.53 545.01 A 0.88 0.88 0.0 0 0 736.10 545.75 Q 735.65 568.63 736.23 587.50 C 736.50 596.33 751.32 598.13 751.62 587.23 Q 751.79 581.04 751.97 545.19 A 1.01 1.01 0.0 0 0 750.96 544.17 L 748.14 544.17 A 0.68 0.68 0.0 0 1 747.46 543.49 L 747.46 541.13 A 0.87 0.87 0.0 0 0 746.59 540.26 L 739.30 540.26 A 0.66 0.65 0.0 0 0 738.64 540.91 Z M 781.07 540.81 Q 780.15 541.21 779.35 542.93 A 1.16 1.16 0.0 0 1 778.49 543.58 C 776.99 543.84 774.33 544.22 773.52 542.68 Q 773.06 541.83 772.52 541.33 A 1.80 1.78 70.3 0 0 771.56 540.87 Q 766.18 540.09 763.53 540.27 C 759.71 540.54 759.07 542.65 759.08 546.35 Q 759.10 575.52 758.98 581.25 C 758.86 587.52 758.97 594.31 766.60 594.75 Q 773.76 595.17 774.04 587.69 Q 774.53 574.47 774.34 567.81 Q 774.29 566.21 774.86 562.19 A 0.62 0.61 79.4 0 1 775.17 561.73 L 778.85 559.60 A 1.00 0.98 80.3 0 0 779.33 558.91 L 780.35 553.18 A 1.74 1.72 -0.0 0 1 781.76 551.78 C 783.60 551.47 786.15 551.79 787.29 553.85 Q 788.35 555.77 791.27 556.38 A 2.32 2.31 2.8 0 1 793.09 558.38 C 794.18 567.80 793.32 577.71 793.33 587.20 Q 793.33 592.83 797.19 594.44 C 802.84 596.80 808.53 593.55 808.69 587.16 Q 809.05 572.95 808.24 553.86 A 1.26 1.25 4.0 0 0 807.21 552.68 L 804.13 552.14 A 1.25 1.24 -89.1 0 1 803.12 551.09 L 802.42 546.52 A 2.01 2.00 -88.1 0 0 800.88 544.87 Q 796.53 543.90 794.56 541.83 A 3.48 3.44 -21.2 0 0 792.10 540.76 L 782.03 540.62 A 2.30 2.28 -56.0 0 0 781.07 540.81 Z M 815.71 581.76 L 822.16 581.89 A 0.81 0.81 0.0 0 1 822.95 582.61 Q 823.09 583.88 822.70 585.16 A 0.68 0.68 0.0 0 0 823.41 586.03 L 829.61 585.45 A 0.65 0.65 0.0 0 1 830.32 586.11 L 830.25 589.93 A 0.98 0.98 0.0 0 0 831.21 590.93 L 845.79 591.21 A 0.63 0.63 0.0 0 0 846.44 590.62 L 846.82 585.47 A 0.99 0.98 -8.3 0 1 847.47 584.61 Q 848.71 584.15 849.81 584.19 A 0.95 0.94 -0.3 0 1 850.73 585.09 L 851.34 596.71 A 1.14 1.13 -3.0 0 1 850.26 597.90 L 845.83 598.13 A 0.90 0.90 0.0 0 0 844.98 598.96 L 844.80 601.50 A 0.93 0.93 0.0 0 1 843.85 602.37 L 835.66 602.21 A 0.93 0.92 87.9 0 1 834.75 601.36 L 834.50 598.66 A 0.71 0.71 0.0 0 0 833.78 598.01 Q 830.71 598.02 827.56 597.61 Q 826.27 597.44 826.74 595.56 A 0.90 0.90 0.0 0 0 825.82 594.45 L 816.97 594.91 A 1.40 1.40 0.0 0 0 815.68 596.00 Q 814.85 599.81 815.84 603.16 C 816.23 604.48 817.91 604.99 818.70 605.98 Q 820.54 608.29 823.55 609.27 A 1.64 1.63 -88.1 0 1 824.63 610.43 L 825.54 614.18 A 0.57 0.55 84.3 0 0 826.05 614.61 Q 841.09 615.44 853.88 614.66 A 0.72 0.71 -89.1 0 0 854.55 614.00 L 854.91 609.12 A 0.69 0.68 0.4 0 1 855.56 608.49 Q 855.90 608.46 859.34 608.62 Q 861.39 608.72 861.73 606.49 Q 862.04 604.43 862.73 601.38 A 1.16 1.11 -12.9 0 1 863.18 600.70 L 865.23 599.22 A 1.11 1.09 -16.1 0 0 865.68 598.42 Q 866.35 589.93 866.39 586.25 Q 866.65 564.21 865.79 546.55 A 1.54 1.54 0.0 0 0 864.67 545.14 Q 862.45 544.52 861.54 541.80 A 1.73 1.73 0.0 0 0 859.93 540.62 L 855.71 540.54 A 1.59 1.58 -74.2 0 0 854.31 541.33 L 853.25 543.16 A 1.10 1.09 -73.9 0 1 852.27 543.71 L 846.85 543.61 A 0.94 0.93 81.2 0 1 845.98 542.97 Q 845.56 541.76 845.08 541.26 A 1.84 1.81 71.4 0 0 843.99 540.71 Q 836.95 539.83 829.45 540.94 C 827.90 541.17 828.04 542.79 827.37 543.61 A 1.96 1.92 11.9 0 1 826.35 544.26 L 822.29 545.30 A 0.92 0.90 -4.9 0 0 821.60 546.11 L 821.33 549.82 A 1.64 1.64 0.0 0 1 820.07 551.31 L 816.72 552.13 A 0.69 0.68 84.1 0 0 816.19 552.79 L 815.63 581.68 A 0.08 0.08 0.0 0 0 815.71 581.76 Z M 920.3601 975.4329 A 1.40 0.36 -179.3 0 0 921.7556 975.8100 A 1.40 0.36 -179.3 0 0 923.1599 975.4671 A 1.40 0.36 -179.3 0 0 921.7644 975.0900 A 1.40 0.36 -179.3 0 0 920.3601 975.4329 Z M 933.15 976.19 Q 932.80 976.01 932.20 976.15 A 0.37 0.36 -36.2 0 0 932.09 976.82 Q 932.53 977.07 933.07 976.88 A 0.39 0.37 -39.8 0 0 933.15 976.19 Z M 977.41 977.18 Q 977.23 977.76 977.31 978.08 A 0.23 0.23 0.0 0 0 977.75 978.09 Q 977.85 977.79 977.79 977.22 A 0.19 0.19 0.0 0 0 977.41 977.18 Z M 974.08 978.81 Q 974.42 978.09 974.33 977.71 A 0.26 0.26 0.0 0 0 973.87 977.61 Q 973.75 977.75 973.63 978.68 A 0.24 0.24 0.0 0 0 974.08 978.81 Z M 966.55 979.39 A 0.40 0.40 0.0 0 0 966.36 978.68 Q 965.59 978.57 965.34 979.01 A 0.45 0.35 -75.3 0 0 965.63 979.67 Q 966.31 979.57 966.55 979.39 Z M 961.35 978.96 A 0.35 0.30 39.3 0 0 961.45 979.53 Q 962.15 979.84 962.33 979.54 C 962.73 978.90 961.58 978.83 961.35 978.96 Z" data-c-fill="f4f3f3" fill-opacity="0"/><path fill="#000000" d="M 353.09 512.89 Q 347.35 514.36 340.14 514.59 A 1.65 1.65 0.0 0 0 338.56 515.97 Q 337.82 520.53 339.22 526.47 A 1.19 1.17 -82.0 0 0 339.76 527.20 L 342.25 528.63 A 0.87 0.80 -87.7 0 1 342.60 529.04 L 343.38 530.99 A 1.81 1.76 -82.6 0 0 343.93 531.72 Q 345.07 532.60 346.80 532.96 Q 356.70 535.03 366.19 536.13 Q 370.40 536.61 374.51 536.22 L 379.57 536.43 A 0.71 0.71 0.0 0 1 380.26 537.14 L 380.26 539.75 A 1.02 1.02 0.0 0 0 381.28 540.77 L 385.75 540.77 A 0.96 0.96 0.0 0 0 386.71 539.81 L 386.71 530.80 A 1.11 1.10 -90.0 0 1 387.81 529.69 L 392.94 529.69 A 0.75 0.75 0.0 0 0 393.69 528.94 L 393.69 524.65 A 0.76 0.76 0.0 0 1 394.54 523.90 L 397.85 524.30 A 0.77 0.77 0.0 0 0 398.70 523.63 L 399.17 519.74 A 0.59 0.59 0.0 0 1 399.73 519.22 C 423.02 518.43 436.04 518.77 471.50 518.75 Q 509.48 518.73 545.25 518.66 C 549.64 518.65 556.04 518.39 556.27 524.36 Q 556.42 528.39 555.55 531.87 A 1.84 1.83 -89.7 0 1 554.20 533.21 L 551.82 533.79 A 0.92 0.91 88.5 0 0 551.14 534.51 L 550.35 538.95 A 0.56 0.55 -2.6 0 1 549.94 539.39 L 546.19 540.30 A 0.71 0.70 -2.0 0 0 545.66 540.86 L 544.60 546.87 A 1.76 1.75 -1.8 0 1 543.28 548.27 L 541.20 548.77 A 0.95 0.94 -2.0 0 0 540.50 549.51 L 539.68 554.17 A 0.96 0.96 0.0 0 1 538.97 554.93 L 535.98 555.65 A 0.71 0.70 83.3 0 0 535.45 556.34 L 535.45 558.76 A 0.73 0.72 -15.0 0 1 535.08 559.39 L 532.27 561.01 A 0.81 0.79 81.0 0 0 531.89 561.55 Q 531.59 562.98 531.65 565.03 Q 531.71 567.09 527.69 566.29 A 0.92 0.92 0.0 0 0 526.59 567.28 L 527.16 573.44 A 0.71 0.70 87.4 0 1 526.46 574.21 L 521.29 574.21 A 0.67 0.66 0.4 0 0 520.62 574.86 Q 520.50 578.78 520.57 579.27 Q 520.93 581.68 518.51 581.80 Q 516.19 581.91 515.78 581.94 A 0.61 0.60 -1.1 0 0 515.22 582.52 L 514.92 590.46 A 0.93 0.93 0.0 0 1 513.99 591.36 L 509.05 591.36 A 0.43 0.43 0.0 0 0 508.62 591.83 L 509.19 597.97 A 1.02 1.01 -5.8 0 1 508.29 599.07 Q 505.84 599.33 503.21 598.69 A 0.56 0.56 0.0 0 0 502.52 599.23 L 502.52 607.55 A 1.02 1.01 -0.0 0 1 501.50 608.56 L 497.50 608.56 A 0.41 0.41 0.0 0 0 497.09 608.97 L 497.09 614.73 A 0.71 0.71 0.0 0 1 496.45 615.44 L 490.45 615.99 A 0.34 0.34 0.0 0 0 490.14 616.33 L 490.14 622.44 A 0.69 0.69 0.0 0 1 489.49 623.13 Q 482.74 623.58 475.25 623.58 Q 341.16 623.54 309.93 623.63 Q 309.53 623.63 306.33 623.20 A 0.73 0.71 89.9 0 1 305.71 622.57 Q 305.22 618.72 306.22 613.80 A 2.86 2.85 -9.3 0 1 307.58 611.92 L 309.84 610.62 A 3.01 2.98 84.9 0 0 311.16 609.03 Q 312.21 606.06 314.98 604.64 A 1.08 1.02 -87.1 0 0 315.42 604.22 L 317.92 599.91 A 0.86 0.84 0.8 0 1 318.30 599.55 L 321.02 598.22 A 1.29 1.29 0.0 0 0 321.71 597.38 C 322.05 596.12 321.86 594.46 323.48 594.22 Q 326.88 593.71 326.96 589.18 A 1.47 1.45 88.0 0 1 328.28 587.75 L 332.60 587.35 A 0.74 0.73 -5.4 0 0 333.27 586.55 L 332.84 581.83 A 0.53 0.53 0.0 0 1 333.42 581.25 Q 334.68 581.38 337.48 581.25 Q 339.35 581.16 338.31 578.07 A 1.05 1.04 -9.4 0 1 339.30 576.69 L 344.55 576.69 A 0.74 0.73 3.5 0 0 345.28 576.05 L 345.71 572.54 A 0.74 0.74 0.0 0 0 345.03 571.72 Q 327.61 570.30 311.12 575.57 Q 306.20 575.70 301.73 574.05 A 1.01 0.98 -87.4 0 1 301.12 573.36 L 300.68 571.54 A 1.73 1.72 87.9 0 0 299.30 570.25 L 293.95 569.30 A 0.86 0.84 -1.4 0 1 293.27 568.67 L 292.77 566.57 A 1.32 1.32 0.0 0 0 291.88 565.63 L 289.59 564.93 A 1.45 1.45 0.0 0 1 288.71 564.19 L 288.08 562.96 A 1.76 1.74 -0.4 0 0 287.26 562.16 Q 285.68 561.41 282.43 561.47 A 1.72 1.71 1.5 0 0 280.75 563.06 L 279.54 579.65 A 1.99 1.98 -10.3 0 1 278.38 581.32 Q 276.41 582.21 276.04 584.25 Q 275.40 587.81 274.71 589.83 A 1.03 1.02 2.5 0 1 273.97 590.50 L 271.18 591.18 A 1.79 1.78 -4.9 0 0 269.82 592.79 L 269.52 596.90 A 1.28 1.27 85.3 0 1 268.56 598.04 L 263.00 599.39 A 0.98 0.98 0.0 0 0 262.30 600.04 L 261.54 602.53 A 1.22 1.22 0.0 0 1 260.56 603.39 L 256.94 603.94 A 1.99 1.98 -89.2 0 0 255.28 605.56 L 254.98 607.21 A 1.58 1.58 0.0 0 0 256.58 609.06 L 266.57 608.78 L 278.65 608.62 A 1.76 1.76 0.0 0 1 280.39 609.97 Q 281.13 613.07 280.38 617.49 A 1.51 1.50 -14.0 0 1 279.81 618.43 Q 279.04 619.00 276.48 619.20 A 1.12 1.12 0.0 0 0 275.45 620.32 L 275.45 622.67 A 0.75 0.75 0.0 0 1 274.70 623.42 L 230.04 623.42 A 1.45 1.45 0.0 0 1 228.59 622.04 L 228.34 617.24 A 0.70 0.69 1.0 0 0 227.70 616.59 Q 225.25 616.37 223.38 615.60 A 1.53 1.49 86.1 0 1 222.63 614.93 Q 221.70 613.26 221.66 611.24 L 222.06 604.63 A 0.53 0.52 87.2 0 1 222.49 604.15 L 231.97 602.39 A 2.87 2.84 19.5 0 0 233.22 601.80 Q 234.90 600.40 237.72 600.16 A 1.03 1.02 8.9 0 0 238.56 599.55 Q 239.19 598.12 239.19 596.17 A 1.12 1.11 -2.8 0 1 240.20 595.06 L 253.18 593.86 A 0.95 0.93 1.9 0 0 254.02 593.09 L 254.82 588.58 A 0.87 0.87 0.0 0 1 255.55 587.87 L 260.79 587.07 A 0.92 0.92 0.0 0 0 261.55 586.33 L 262.21 582.57 A 1.28 1.28 0.0 0 1 263.16 581.56 L 264.88 581.15 A 1.36 1.35 -5.3 0 0 265.91 579.92 C 266.11 577.02 266.93 572.68 266.87 568.75 Q 266.72 559.17 266.16 549.47 Q 266.04 547.25 263.44 547.53 A 1.36 1.36 0.0 0 1 261.94 546.31 L 261.36 539.94 A 0.77 0.77 0.0 0 0 260.59 539.25 L 255.90 539.25 A 0.96 0.96 0.0 0 1 254.94 538.29 L 254.94 534.87 A 1.07 1.06 0.0 0 1 256.01 533.81 L 260.88 533.81 A 0.75 0.75 0.0 0 0 261.63 533.11 L 261.86 529.91 A 0.86 0.85 -87.8 0 1 262.71 529.11 L 274.44 529.11 A 0.66 0.65 88.1 0 1 275.09 529.73 L 275.57 539.00 A 0.81 0.80 3.6 0 0 276.24 539.75 L 279.65 540.36 A 0.83 0.83 0.0 0 1 280.32 541.02 C 281.13 545.19 283.00 544.62 286.43 545.39 A 1.02 1.00 88.5 0 1 287.19 546.12 C 287.86 548.71 287.24 551.67 291.59 551.62 A 1.16 1.15 -1.8 0 1 292.76 552.71 Q 292.92 555.63 295.88 556.16 Q 298.71 556.67 302.06 557.33 A 1.47 1.42 -11.9 0 1 302.95 557.89 L 303.94 559.27 A 2.77 2.74 79.7 0 0 305.41 560.30 Q 312.35 562.24 318.00 559.58 A 6.16 6.03 28.7 0 1 319.96 559.03 Q 333.27 557.64 343.27 557.86 Q 345.91 557.91 345.48 554.87 A 1.81 1.81 0.0 0 1 347.10 552.81 L 351.05 552.45 A 1.49 1.48 2.3 0 0 352.37 551.24 Q 352.91 548.41 350.04 548.16 Q 345.02 547.74 336.97 547.42 A 1.04 1.03 -88.9 0 1 335.98 546.38 L 335.98 541.76 A 0.82 0.81 -88.1 0 0 335.22 540.94 L 332.62 540.75 A 1.10 1.10 0.0 0 1 331.65 539.30 Q 332.54 536.66 330.78 536.51 Q 328.09 536.29 326.90 536.08 A 0.93 0.92 2.5 0 1 326.13 535.25 Q 325.03 522.46 326.51 510.97 A 0.96 0.96 0.0 0 1 327.25 510.15 L 329.43 509.61 A 1.73 1.71 -10.2 0 0 330.74 507.74 Q 330.44 505.05 332.26 504.94 Q 334.14 504.83 335.43 504.59 A 1.01 1.00 -87.2 0 0 336.22 503.87 Q 336.58 502.60 336.36 500.89 A 0.65 0.64 85.0 0 1 336.96 500.17 L 364.18 498.76 A 1.72 1.67 -68.2 0 0 365.30 498.26 L 366.54 497.02 A 1.15 1.06 -69.6 0 1 367.17 496.70 L 377.66 495.10 A 1.31 1.29 -72.9 0 0 378.42 494.69 Q 379.11 493.82 378.43 490.63 A 0.96 0.95 -7.5 0 1 379.32 489.48 L 383.76 489.25 A 0.70 0.70 0.0 0 0 384.42 488.52 L 383.97 479.96 A 0.85 0.85 0.0 0 0 383.12 479.15 L 375.18 479.15 A 0.60 0.60 0.0 0 1 374.58 478.55 L 374.58 467.42 A 0.72 0.72 0.0 0 1 375.30 466.70 L 386.70 466.70 A 0.86 0.86 0.0 0 1 387.56 467.48 L 388.01 472.33 A 0.85 0.84 -88.3 0 0 388.72 473.09 Q 393.76 473.84 397.29 473.19 A 0.78 0.77 88.5 0 0 397.92 472.52 Q 398.87 464.60 397.85 457.44 A 1.03 1.02 -4.2 0 0 396.83 456.57 L 390.46 456.57 A 0.85 0.84 -84.1 0 1 389.64 455.55 Q 390.14 453.08 389.27 452.54 A 0.48 0.38 -20.3 0 0 389.06 452.47 L 385.75 452.23 A 0.77 0.76 -88.0 0 1 385.04 451.46 L 385.04 436.86 A 0.95 0.95 0.0 0 0 383.95 435.92 L 381.46 436.30 A 0.54 0.54 0.0 0 1 380.84 435.81 L 380.50 432.13 A 1.49 1.48 89.3 0 0 379.13 430.79 L 374.70 430.47 A 0.63 0.63 0.0 0 1 374.12 429.90 L 373.80 426.46 A 0.77 0.77 0.0 0 0 372.96 425.76 L 368.57 426.17 A 0.68 0.67 87.7 0 1 367.84 425.49 L 367.84 421.72 A 0.98 0.97 2.2 0 0 366.94 420.75 L 354.23 419.83 A 0.80 0.79 -0.4 0 1 353.49 419.11 L 353.30 417.09 A 2.45 2.44 87.8 0 0 350.90 414.86 Q 347.44 414.81 345.13 413.07 A 3.20 3.16 -21.8 0 0 343.64 412.44 C 338.26 411.69 335.36 411.15 330.76 411.18 Q 314.39 411.28 301.20 410.80 A 1.35 1.35 0.0 0 1 299.91 409.58 L 299.76 407.93 A 0.76 0.76 0.0 0 0 299.06 407.24 L 294.79 406.93 A 0.93 0.93 0.0 0 1 293.92 406.00 L 293.92 401.08 A 0.78 0.78 0.0 0 0 293.30 400.32 Q 285.62 398.75 279.78 403.82 A 2.05 2.03 -11.0 0 0 279.18 404.70 Q 277.80 408.71 278.11 412.99 A 1.01 1.01 0.0 0 0 278.94 413.91 L 285.30 415.04 A 0.93 0.92 -85.3 0 1 286.07 415.96 L 286.07 420.24 A 0.69 0.68 -90.0 0 1 285.39 420.93 L 277.01 420.93 A 0.75 0.74 0.0 0 0 276.26 421.67 L 276.26 429.44 A 0.66 0.66 0.0 0 1 275.60 430.10 L 269.73 430.10 A 0.72 0.72 0.0 0 0 269.01 430.82 L 269.01 436.63 A 0.49 0.48 -87.8 0 1 268.49 437.12 L 263.03 436.72 A 1.16 1.15 2.1 0 0 261.79 437.87 L 261.79 445.26 A 0.78 0.78 0.0 0 1 261.01 446.04 L 255.34 446.04 A 1.01 1.01 0.0 0 0 254.33 447.05 L 254.33 455.51 A 0.60 0.59 -1.5 0 1 253.76 456.10 L 239.46 456.85 A 0.53 0.53 0.0 0 0 238.95 457.35 L 238.56 462.66 A 0.38 0.37 -0.1 0 1 238.20 463.01 L 221.36 463.89 A 0.72 0.71 88.8 0 0 220.68 464.61 L 220.68 470.17 A 0.59 0.59 0.0 0 1 220.09 470.76 L 209.70 470.76 A 1.18 1.18 0.0 0 0 208.54 472.14 Q 208.98 474.67 208.51 476.28 A 0.77 0.77 0.0 0 1 207.77 476.84 L 198.40 476.84 A 0.72 0.72 0.0 0 0 197.68 477.56 L 197.68 484.42 A 0.65 0.64 -90.0 0 1 197.04 485.07 L 191.00 485.07 A 1.26 1.26 0.0 0 0 189.75 486.44 L 190.13 490.55 A 0.57 0.56 -0.8 0 1 189.52 491.17 L 185.69 490.89 A 0.77 0.77 0.0 0 0 184.86 491.66 L 184.86 495.81 A 1.05 1.05 0.0 0 1 183.81 496.86 L 179.71 496.86 A 0.43 0.43 0.0 0 0 179.28 497.29 L 179.28 506.31 A 0.91 0.91 0.0 0 1 178.41 507.22 L 172.69 507.52 A 0.45 0.45 0.0 0 0 172.26 507.94 L 171.65 516.24 A 1.14 1.13 89.4 0 1 170.63 517.29 Q 169.58 517.39 168.50 517.77 A 0.94 0.91 -5.0 0 0 167.88 518.49 L 165.89 529.67 A 0.72 0.72 0.0 0 1 165.42 530.23 Q 164.38 530.60 163.33 530.59 A 1.17 1.16 -0.7 0 0 162.15 531.79 C 162.23 534.61 161.17 538.47 161.13 542.10 Q 161.01 551.49 161.71 565.24 A 0.94 0.94 0.0 0 0 162.02 565.89 Q 162.80 566.61 165.25 566.30 A 1.23 1.23 0.0 0 1 166.64 567.46 L 167.20 578.28 A 1.42 1.42 0.0 0 0 168.57 579.62 Q 171.04 579.70 171.21 581.81 C 171.31 582.99 171.86 584.80 171.57 586.27 A 1.07 1.05 -88.7 0 1 170.69 587.13 L 166.85 587.71 A 0.98 0.98 0.0 0 0 166.03 588.74 Q 166.34 593.07 164.58 594.52 L 155.24 595.44 A 0.79 0.76 -77.5 0 0 154.65 595.83 L 153.06 598.57 A 1.06 1.06 0.0 0 1 152.45 599.05 C 150.39 599.62 147.69 599.61 147.15 601.69 A 2.67 2.17 -75.5 0 0 148.58 604.81 C 150.39 605.28 151.13 605.54 152.97 606.73 Q 155.20 608.18 158.17 608.41 Q 163.35 608.82 169.85 609.27 A 1.32 1.32 0.0 0 1 171.07 610.44 Q 171.74 616.35 170.70 622.22 A 1.02 1.01 2.3 0 1 169.81 623.04 Q 159.82 624.08 149.08 622.97 A 1.45 1.44 88.4 0 1 147.80 621.75 L 147.17 617.63 A 1.02 1.00 4.7 0 0 146.46 616.81 L 141.60 615.33 A 0.88 0.87 83.1 0 1 141.12 614.95 L 139.17 611.56 A 1.06 1.00 1.0 0 0 138.78 611.18 L 135.65 609.37 A 2.89 2.88 11.0 0 1 134.24 607.29 Q 133.24 600.51 134.62 594.95 A 0.74 0.74 0.0 0 1 135.23 594.40 Q 137.44 594.11 138.46 593.51 A 1.10 1.05 -7.8 0 0 138.92 592.93 L 140.39 588.09 A 1.31 1.30 4.0 0 1 141.43 587.19 L 146.54 586.41 A 0.98 0.97 88.2 0 0 147.37 585.52 L 147.62 582.13 A 0.57 0.56 -2.6 0 1 148.10 581.61 L 152.34 580.96 A 1.04 1.03 -1.5 0 0 153.22 580.04 C 153.51 577.02 154.28 565.89 150.30 565.51 Q 149.70 565.45 149.34 565.19 A 1.21 1.20 -75.5 0 1 148.85 564.35 Q 146.65 546.30 148.63 527.76 C 148.99 524.38 151.38 525.61 152.10 523.50 Q 153.84 518.41 154.61 511.90 A 2.54 2.47 -27.4 0 1 154.93 510.94 Q 155.49 509.93 157.46 508.92 A 1.67 1.65 81.9 0 0 158.34 507.74 L 159.51 501.15 A 0.61 0.60 8.2 0 1 160.17 500.66 Q 162.65 500.96 162.59 498.79 Q 162.55 497.64 162.81 495.97 A 0.86 0.85 -87.8 0 1 163.57 495.26 L 167.16 494.93 A 0.77 0.76 89.6 0 0 167.85 494.22 L 168.18 489.65 A 1.17 1.16 -88.1 0 1 169.33 488.57 Q 171.73 488.53 172.58 488.08 A 1.02 0.99 79.4 0 0 173.12 487.27 L 173.61 481.06 A 0.80 0.79 86.0 0 1 174.22 480.35 L 179.11 479.16 A 1.21 1.20 -85.0 0 0 179.94 478.46 Q 180.37 477.45 180.34 475.84 A 0.99 0.98 -3.2 0 1 181.23 474.85 L 184.60 474.54 A 0.85 0.85 0.0 0 0 185.26 474.12 L 186.66 471.70 A 0.46 0.46 0.0 0 1 187.02 471.47 L 190.36 471.16 A 1.03 1.01 -88.9 0 0 191.28 470.26 L 191.66 467.15 A 0.75 0.75 0.0 0 1 192.34 466.49 L 197.54 466.01 A 1.12 1.11 -2.8 0 0 198.55 464.90 L 198.55 460.32 A 0.55 0.54 88.9 0 1 199.07 459.77 L 210.55 459.17 A 0.74 0.74 0.0 0 0 211.25 458.43 L 211.25 453.45 A 0.65 0.65 0.0 0 1 211.85 452.80 L 227.17 451.38 A 1.55 1.51 -72.8 0 0 228.22 450.81 Q 229.04 449.79 229.46 448.46 A 0.97 0.95 1.5 0 1 230.15 447.82 L 237.37 446.06 A 1.62 1.61 -81.5 0 0 238.40 445.29 L 238.77 444.65 A 1.06 1.05 7.8 0 1 239.41 444.17 L 245.18 442.77 A 0.93 0.91 86.8 0 0 245.87 441.99 L 246.54 436.46 A 0.81 0.81 0.0 0 1 247.23 435.75 L 251.70 435.06 A 0.79 0.79 0.0 0 0 252.38 434.33 L 252.83 428.18 A 0.79 0.79 0.0 0 1 253.55 427.45 L 258.07 427.03 A 1.06 1.05 -2.7 0 0 259.03 425.98 L 259.03 420.19 A 0.79 0.78 -4.3 0 1 259.70 419.42 L 262.76 418.95 A 0.73 0.72 89.5 0 0 263.37 418.32 L 265.04 404.47 A 1.23 1.21 -12.0 0 1 265.65 403.55 L 268.12 402.12 A 1.16 1.13 81.1 0 0 268.68 401.33 L 269.85 394.69 A 1.33 1.32 1.2 0 1 270.98 393.61 Q 274.08 393.18 274.90 392.39 C 275.88 391.43 275.56 389.48 277.44 389.20 Q 284.63 388.14 290.96 388.41 A 0.95 0.95 0.0 0 0 291.95 387.46 L 291.95 382.83 A 0.66 0.66 0.0 0 1 292.58 382.17 L 299.72 381.80 A 0.72 0.71 -87.6 0 0 300.39 381.18 L 300.82 377.55 A 0.75 0.74 3.5 0 1 301.56 376.90 L 315.24 376.90 A 0.66 0.66 0.0 0 1 315.89 377.66 Q 315.49 380.22 316.17 381.33 A 0.99 0.99 0.0 0 0 317.01 381.80 L 322.98 381.80 A 0.43 0.42 -2.2 0 1 323.41 382.19 L 323.87 387.13 A 0.68 0.67 87.2 0 0 324.54 387.74 L 332.74 387.74 A 0.51 0.51 0.0 0 1 333.25 388.22 Q 333.52 391.55 332.66 393.55 A 1.21 1.20 1.2 0 1 332.01 394.17 L 329.75 395.05 A 0.09 0.09 0.0 0 0 329.75 395.21 C 331.80 395.93 331.95 398.52 334.04 398.49 Q 343.74 398.36 352.31 399.23 A 0.90 0.90 0.0 0 1 353.12 400.05 Q 353.18 400.73 353.76 401.94 A 0.90 0.88 81.7 0 0 354.40 402.43 L 361.33 403.66 A 1.91 1.89 4.8 0 1 362.90 405.50 Q 362.93 407.86 364.30 408.17 Q 367.24 408.84 369.82 408.65 A 0.60 0.59 88.2 0 1 370.45 409.25 L 370.45 412.48 A 1.07 1.06 2.0 0 0 371.44 413.54 L 379.09 414.10 A 0.58 0.58 0.0 0 1 379.63 414.68 L 379.63 418.90 A 0.50 0.49 0.0 0 0 380.13 419.39 L 388.59 419.39 A 1.03 1.03 0.0 0 1 389.62 420.42 L 389.62 425.61 A 0.90 0.90 0.0 0 0 390.41 426.50 L 396.33 427.22 A 0.84 0.83 6.8 0 1 397.07 428.15 L 396.78 430.56 A 0.73 0.72 -83.3 0 0 397.41 431.37 L 405.18 432.31 A 1.06 1.05 -0.7 0 1 406.09 433.19 L 406.83 438.08 A 1.70 1.69 -89.5 0 0 408.21 439.49 L 411.70 440.11 A 0.70 0.69 -87.9 0 1 412.27 440.73 Q 413.93 456.87 412.26 472.41 A 1.02 1.01 78.1 0 1 411.75 473.20 L 408.64 475.00 A 0.90 0.89 -7.2 0 0 408.23 475.52 L 404.11 489.00 A 1.36 1.34 1.4 0 1 403.12 489.93 L 397.16 491.38 A 0.58 0.58 0.0 0 0 396.72 491.89 Q 396.51 494.07 397.02 495.64 A 0.74 0.74 0.0 0 1 396.32 496.61 L 389.51 496.61 A 1.10 1.10 0.0 0 0 388.41 497.77 L 388.65 502.44 A 0.62 0.60 86.1 0 1 388.10 503.09 L 381.12 503.74 A 1.28 1.27 0.8 0 0 379.96 504.86 L 379.53 508.44 A 0.66 0.66 0.0 0 1 378.90 509.02 Q 365.56 509.35 353.09 512.89 Z M 322.9905 393.3754 A 1.02 1.02 0.0 0 0 321.9758 392.3501 L 306.6760 392.2700 A 1.02 1.02 0.0 0 0 305.6507 393.2846 L 305.6295 397.3246 A 1.02 1.02 0.0 0 0 306.6442 398.3499 L 321.9440 398.4300 A 1.02 1.02 0.0 0 0 322.9693 397.4154 L 322.9905 393.3754 Z M 396.69 540.33 L 396.69 548.16 A 0.73 0.72 -90.0 0 1 395.97 548.89 L 390.14 548.89 A 1.24 1.23 -0.0 0 0 388.90 550.12 L 388.90 555.12 A 1.15 1.14 -90.0 0 1 387.76 556.27 L 380.89 556.27 A 1.38 1.38 0.0 0 1 379.51 554.89 L 379.51 552.29 A 0.93 0.93 0.0 0 0 378.58 551.36 L 372.01 551.36 A 0.88 0.87 -84.9 0 0 371.15 552.08 L 370.65 554.88 A 0.82 0.82 0.0 0 1 369.84 555.56 L 367.19 555.56 A 1.93 1.93 0.0 0 0 365.36 556.88 L 365.19 557.43 A 1.25 1.25 0.0 0 0 366.34 559.03 C 371.90 559.27 373.93 559.51 378.05 563.54 A 1.91 1.90 16.9 0 1 378.61 564.58 Q 379.41 569.02 378.56 574.06 A 0.92 0.92 0.0 0 1 377.59 574.82 L 367.59 574.09 A 1.72 1.71 -8.9 0 1 366.13 573.03 Q 365.06 570.40 360.94 570.86 A 0.59 0.59 0.0 0 0 360.42 571.41 L 359.80 579.82 A 1.41 1.41 0.0 0 1 358.39 581.13 L 353.82 581.13 A 0.94 0.94 0.0 0 0 352.88 582.07 L 352.88 585.24 A 1.04 1.04 0.0 0 0 353.92 586.28 L 463.41 586.28 A 0.71 0.71 0.0 0 0 464.12 585.57 L 464.12 581.12 A 0.59 0.59 0.0 0 1 464.71 580.53 L 469.76 580.53 A 1.25 1.25 0.0 0 0 471.01 579.28 L 471.01 573.38 A 0.66 0.65 -87.6 0 1 471.72 572.72 L 476.08 573.03 A 0.72 0.72 0.0 0 0 476.86 572.31 L 476.86 564.35 A 0.68 0.68 0.0 0 1 477.66 563.68 L 480.20 564.13 A 1.51 1.50 5.0 0 0 481.97 562.65 L 481.97 558.15 A 0.58 0.58 0.0 0 1 482.55 557.57 L 487.13 557.57 A 0.67 0.67 0.0 0 0 487.80 556.90 L 487.80 552.06 A 0.49 0.49 0.0 0 1 488.33 551.57 L 491.59 551.81 A 0.96 0.96 0.0 0 0 492.60 550.71 L 491.86 545.89 A 0.41 0.41 0.0 0 1 492.26 545.42 L 497.24 545.42 A 0.66 0.66 0.0 0 0 497.90 544.76 L 497.90 540.26 A 0.84 0.83 90.0 0 1 498.73 539.42 L 503.86 539.42 A 0.47 0.46 2.0 0 0 504.33 538.99 L 504.69 533.97 A 0.55 0.55 0.0 0 0 504.14 533.37 L 405.32 533.37 A 0.90 0.89 -90.0 0 0 404.43 534.27 L 404.43 539.23 A 0.63 0.62 -0.0 0 1 403.80 539.85 L 397.17 539.85 A 0.48 0.48 0.0 0 0 396.69 540.33 Z M 491.69 568.68 L 491.69 574.65 A 0.53 0.53 0.0 0 1 491.10 575.18 L 487.35 574.72 A 0.71 0.71 0.0 0 0 486.56 575.53 L 487.35 580.69 A 1.07 1.06 85.6 0 1 486.30 581.92 L 480.17 581.92 A 0.53 0.52 -90.0 0 0 479.65 582.45 L 479.65 592.83 A 0.62 0.62 0.0 0 1 478.98 593.45 L 473.15 593.03 A 0.57 0.57 0.0 0 0 472.53 593.60 L 472.53 598.97 A 0.55 0.55 0.0 0 1 471.98 599.52 L 335.20 599.52 A 0.40 0.39 -0.0 0 0 334.80 599.91 L 334.80 604.32 A 0.58 0.57 -87.7 0 1 334.18 604.90 L 331.04 604.67 A 1.57 1.56 5.6 0 0 329.37 606.04 L 329.26 606.96 A 1.68 1.68 0.0 0 0 330.93 608.84 L 480.49 608.84 A 1.04 1.04 0.0 0 0 481.53 607.80 L 481.53 601.80 A 0.49 0.49 0.0 0 1 482.02 601.31 L 487.71 601.31 A 0.73 0.72 90.0 0 0 488.43 600.58 L 488.43 595.43 A 0.62 0.61 1.8 0 1 489.09 594.82 L 492.44 595.07 A 0.71 0.71 0.0 0 0 493.20 594.36 L 493.20 588.11 A 0.80 0.80 0.0 0 1 494.00 587.31 L 498.21 587.31 A 0.65 0.65 0.0 0 0 498.86 586.66 L 498.86 581.11 A 0.60 0.59 -0.0 0 1 499.46 580.52 L 504.48 580.52 A 0.70 0.70 0.0 0 0 505.18 579.82 L 505.18 573.63 A 0.64 0.64 0.0 0 1 505.87 572.99 L 510.54 573.33 A 0.57 0.57 0.0 0 0 511.15 572.76 L 511.15 565.59 A 0.63 0.63 0.0 0 1 511.96 564.99 Q 513.65 565.53 514.99 565.33 A 0.66 0.66 0.0 0 0 515.54 564.58 L 514.65 558.69 A 0.66 0.66 0.0 0 1 515.44 557.94 Q 517.43 558.36 519.52 557.90 A 0.82 0.82 0.0 0 0 520.17 557.10 L 520.17 551.72 A 0.41 0.40 -90.0 0 1 520.57 551.31 L 525.82 551.31 A 0.72 0.72 0.0 0 0 526.54 550.63 Q 526.71 547.45 525.76 544.93 A 0.52 0.52 0.0 0 1 526.25 544.22 L 530.64 544.22 A 0.70 0.69 2.2 0 0 531.34 543.58 L 531.67 538.99 A 1.08 1.07 87.7 0 1 532.58 538.00 L 535.54 537.55 A 0.88 0.87 -85.7 0 0 536.25 536.93 Q 536.64 535.60 536.44 534.02 A 0.83 0.82 -3.5 0 0 535.62 533.30 L 521.03 533.30 A 0.81 0.80 -4.3 0 0 520.23 534.22 L 520.97 539.04 A 0.56 0.56 0.0 0 1 520.42 539.68 L 516.51 539.68 A 0.91 0.90 0.0 0 0 515.60 540.58 L 515.60 547.06 A 1.30 1.29 90.0 0 1 514.31 548.36 L 509.24 548.36 A 0.51 0.51 0.0 0 0 508.73 548.87 L 508.73 555.08 A 0.57 0.57 0.0 0 1 508.16 555.65 L 503.34 555.65 A 0.58 0.57 -87.8 0 0 502.77 556.19 L 502.42 560.91 A 0.74 0.74 0.0 0 1 501.62 561.60 L 499.37 561.44 A 0.84 0.84 0.0 0 0 498.47 562.28 L 498.47 567.86 A 0.66 0.66 0.0 0 1 497.76 568.52 L 492.29 568.12 A 0.56 0.56 0.0 0 0 491.69 568.68 Z" data-c-fill="10101"/><rect fill="#b5805d" x="-8.67" y="-3.04" transform="rotate(.3 -75348.96 60226.326)" width="17.34" height="6.08" rx="1.02" data-c-fill="b5805d"/><path fill="#b5805d" d="M 221.66 611.24 Q 213.30 610.31 204.95 609.40 C 200.74 608.94 198.18 608.14 194.68 607.28 A 16.28 15.98 64.0 0 1 191.83 606.27 Q 181.74 601.56 174.55 599.42 C 172.33 598.76 169.57 599.01 167.72 596.77 Q 166.31 595.06 164.58 594.52 Q 166.34 593.07 166.03 588.74 A 0.98 0.98 0.0 0 1 166.85 587.71 L 170.69 587.13 A 1.07 1.05 -88.7 0 0 171.57 586.27 C 171.86 584.80 171.31 582.99 171.21 581.81 Q 171.04 579.70 168.57 579.62 A 1.42 1.42 0.0 0 1 167.20 578.28 L 166.64 567.46 A 1.23 1.23 0.0 0 0 165.25 566.30 Q 162.80 566.61 162.02 565.89 A 0.94 0.94 0.0 0 1 161.71 565.24 Q 161.01 551.49 161.13 542.10 C 161.17 538.47 162.23 534.61 162.15 531.79 A 1.17 1.16 -0.7 0 1 163.33 530.59 Q 164.38 530.60 165.42 530.23 A 0.72 0.72 0.0 0 0 165.89 529.67 L 167.88 518.49 A 0.94 0.91 -5.0 0 1 168.50 517.77 Q 169.58 517.39 170.63 517.29 A 1.14 1.13 89.4 0 0 171.65 516.24 L 172.26 507.94 A 0.45 0.45 0.0 0 1 172.69 507.52 L 178.41 507.22 A 0.91 0.91 0.0 0 0 179.28 506.31 L 179.28 497.29 A 0.43 0.43 0.0 0 1 179.71 496.86 L 183.81 496.86 A 1.05 1.05 0.0 0 0 184.86 495.81 L 184.86 491.66 A 0.77 0.77 0.0 0 1 185.69 490.89 L 189.52 491.17 A 0.57 0.56 -0.8 0 0 190.13 490.55 L 189.75 486.44 A 1.26 1.26 0.0 0 1 191.00 485.07 L 197.04 485.07 A 0.65 0.64 -90.0 0 0 197.68 484.42 L 197.68 477.56 A 0.72 0.72 0.0 0 1 198.40 476.84 L 207.77 476.84 A 0.77 0.77 0.0 0 0 208.51 476.28 Q 208.98 474.67 208.54 472.14 A 1.18 1.18 0.0 0 1 209.70 470.76 L 220.09 470.76 A 0.59 0.59 0.0 0 0 220.68 470.17 L 220.68 464.61 A 0.72 0.71 88.8 0 1 221.36 463.89 L 238.20 463.01 A 0.38 0.37 -0.1 0 0 238.56 462.66 L 238.95 457.35 A 0.53 0.53 0.0 0 1 239.46 456.85 L 253.76 456.10 A 0.60 0.59 -1.5 0 0 254.33 455.51 L 254.33 447.05 A 1.01 1.01 0.0 0 1 255.34 446.04 L 261.01 446.04 A 0.78 0.78 0.0 0 0 261.79 445.26 L 261.79 437.87 A 1.16 1.15 2.1 0 1 263.03 436.72 L 268.49 437.12 A 0.49 0.48 -87.8 0 0 269.01 436.63 L 269.01 430.82 A 0.72 0.72 0.0 0 1 269.73 430.10 L 275.60 430.10 A 0.66 0.66 0.0 0 0 276.26 429.44 L 276.26 421.67 A 0.75 0.74 0.0 0 1 277.01 420.93 L 285.39 420.93 A 0.69 0.68 -90.0 0 0 286.07 420.24 L 286.07 415.96 A 0.93 0.92 -85.3 0 0 285.30 415.04 L 278.94 413.91 A 1.01 1.01 0.0 0 1 278.11 412.99 Q 277.80 408.71 279.18 404.70 A 2.05 2.03 -11.0 0 1 279.78 403.82 Q 285.62 398.75 293.30 400.32 A 0.78 0.78 0.0 0 1 293.92 401.08 L 293.92 406.00 A 0.93 0.93 0.0 0 0 294.79 406.93 L 299.06 407.24 A 0.76 0.76 0.0 0 1 299.76 407.93 L 299.91 409.58 A 1.35 1.35 0.0 0 0 301.20 410.80 Q 314.39 411.28 330.76 411.18 C 335.36 411.15 338.26 411.69 343.64 412.44 A 3.20 3.16 -21.8 0 1 345.13 413.07 Q 347.44 414.81 350.90 414.86 A 2.45 2.44 87.8 0 1 353.30 417.09 L 353.49 419.11 A 0.80 0.79 -0.4 0 0 354.23 419.83 L 366.94 420.75 A 0.98 0.97 2.2 0 1 367.84 421.72 L 367.84 425.49 A 0.68 0.67 87.7 0 0 368.57 426.17 L 372.96 425.76 A 0.77 0.77 0.0 0 1 373.80 426.46 L 374.12 429.90 A 0.63 0.63 0.0 0 0 374.70 430.47 L 379.13 430.79 A 1.49 1.48 89.3 0 1 380.50 432.13 L 380.84 435.81 A 0.54 0.54 0.0 0 0 381.46 436.30 L 383.95 435.92 A 0.95 0.95 0.0 0 1 385.04 436.86 L 385.04 451.46 A 0.77 0.76 -88.0 0 0 385.75 452.23 L 389.06 452.47 A 0.48 0.38 -20.3 0 1 389.27 452.54 Q 390.14 453.08 389.64 455.55 A 0.85 0.84 -84.1 0 0 390.46 456.57 L 396.83 456.57 A 1.03 1.02 -4.2 0 1 397.85 457.44 Q 398.87 464.60 397.92 472.52 A 0.78 0.77 88.5 0 1 397.29 473.19 Q 393.76 473.84 388.72 473.09 A 0.85 0.84 -88.3 0 1 388.01 472.33 L 387.56 467.48 A 0.86 0.86 0.0 0 0 386.70 466.70 L 375.30 466.70 A 0.72 0.72 0.0 0 0 374.58 467.42 L 374.58 478.55 A 0.60 0.60 0.0 0 0 375.18 479.15 L 383.12 479.15 A 0.85 0.85 0.0 0 1 383.97 479.96 L 384.42 488.52 A 0.70 0.70 0.0 0 1 383.76 489.25 L 379.32 489.48 A 0.96 0.95 -7.5 0 0 378.43 490.63 Q 379.11 493.82 378.42 494.69 A 1.31 1.29 -72.9 0 1 377.66 495.10 L 367.17 496.70 A 1.15 1.06 -69.6 0 0 366.54 497.02 L 365.30 498.26 A 1.72 1.67 -68.2 0 1 364.18 498.76 L 336.96 500.17 A 0.65 0.64 85.0 0 0 336.36 500.89 Q 336.58 502.60 336.22 503.87 A 1.01 1.00 -87.2 0 1 335.43 504.59 Q 334.14 504.83 332.26 504.94 Q 330.44 505.05 330.74 507.74 A 1.73 1.71 -10.2 0 1 329.43 509.61 L 327.25 510.15 A 0.96 0.96 0.0 0 0 326.51 510.97 Q 325.03 522.46 326.13 535.25 A 0.93 0.92 2.5 0 0 326.90 536.08 Q 328.09 536.29 330.78 536.51 Q 332.54 536.66 331.65 539.30 A 1.10 1.10 0.0 0 0 332.62 540.75 L 335.22 540.94 A 0.82 0.81 -88.1 0 1 335.98 541.76 L 335.98 546.38 A 1.04 1.03 -88.9 0 0 336.97 547.42 Q 345.02 547.74 350.04 548.16 Q 352.91 548.41 352.37 551.24 A 1.49 1.48 2.3 0 1 351.05 552.45 L 347.10 552.81 A 1.81 1.81 0.0 0 0 345.48 554.87 Q 345.91 557.91 343.27 557.86 Q 333.27 557.64 319.96 559.03 A 6.16 6.03 28.7 0 0 318.00 559.58 Q 312.35 562.24 305.41 560.30 A 2.77 2.74 79.7 0 1 303.94 559.27 L 302.95 557.89 A 1.47 1.42 -11.9 0 0 302.06 557.33 Q 298.71 556.67 295.88 556.16 Q 292.92 555.63 292.76 552.71 A 1.16 1.15 -1.8 0 0 291.59 551.62 C 287.24 551.67 287.86 548.71 287.19 546.12 A 1.02 1.00 88.5 0 0 286.43 545.39 C 283.00 544.62 281.13 545.19 280.32 541.02 A 0.83 0.83 0.0 0 0 279.65 540.36 L 276.24 539.75 A 0.81 0.80 3.6 0 1 275.57 539.00 L 275.09 529.73 A 0.66 0.65 88.1 0 0 274.44 529.11 L 262.71 529.11 A 0.86 0.85 -87.8 0 0 261.86 529.91 L 261.63 533.11 A 0.75 0.75 0.0 0 1 260.88 533.81 L 256.01 533.81 A 1.07 1.06 -0.0 0 0 254.94 534.87 L 254.94 538.29 A 0.96 0.96 0.0 0 0 255.90 539.25 L 260.59 539.25 A 0.77 0.77 0.0 0 1 261.36 539.94 L 261.94 546.31 A 1.36 1.36 0.0 0 0 263.44 547.53 Q 266.04 547.25 266.16 549.47 Q 266.72 559.17 266.87 568.75 C 266.93 572.68 266.11 577.02 265.91 579.92 A 1.36 1.35 -5.3 0 1 264.88 581.15 L 263.16 581.56 A 1.28 1.28 0.0 0 0 262.21 582.57 L 261.55 586.33 A 0.92 0.92 0.0 0 1 260.79 587.07 L 255.55 587.87 A 0.87 0.87 0.0 0 0 254.82 588.58 L 254.02 593.09 A 0.95 0.93 1.9 0 1 253.18 593.86 L 240.20 595.06 A 1.12 1.11 -2.8 0 0 239.19 596.17 Q 239.19 598.12 238.56 599.55 A 1.03 1.02 8.9 0 1 237.72 600.16 Q 234.90 600.40 233.22 601.80 A 2.87 2.84 19.5 0 1 231.97 602.39 L 222.49 604.15 A 0.53 0.52 87.2 0 0 222.06 604.63 L 221.66 611.24 Z M 332.74 445.69 A 0.80 0.79 89.3 0 0 333.53 446.47 L 344.65 446.47 A 1.22 1.21 90.0 0 0 345.86 445.25 L 345.86 432.22 A 0.83 0.83 0.0 0 0 345.20 431.41 Q 340.01 430.27 334.85 431.57 A 1.72 1.61 18.2 0 0 334.27 431.84 L 329.23 435.47 A 0.66 0.63 -14.6 0 0 328.97 435.89 Q 328.58 438.03 329.07 439.91 A 0.83 0.83 0.0 0 0 329.77 440.53 Q 331.44 440.76 332.15 441.37 A 1.38 1.36 -71.1 0 1 332.63 442.37 L 332.74 445.69 Z" data-c-fill="b5805d"/><path fill="#000000" d="M 332.74 445.69 L 332.63 442.37 A 1.38 1.36 -71.1 0 0 332.15 441.37 Q 331.44 440.76 329.77 440.53 A 0.83 0.83 0.0 0 1 329.07 439.91 Q 328.58 438.03 328.97 435.89 A 0.66 0.63 -14.6 0 1 329.23 435.47 L 334.27 431.84 A 1.72 1.61 18.2 0 1 334.85 431.57 Q 340.01 430.27 345.20 431.41 A 0.83 0.83 0.0 0 1 345.86 432.22 L 345.86 445.25 A 1.22 1.21 -90.0 0 1 344.65 446.47 L 333.53 446.47 A 0.80 0.79 89.3 0 1 332.74 445.69 Z" data-c-fill="10101"/><path fill="#b5805d" d="M 353.09 512.89 Q 353.37 515.58 354.30 517.24 A 1.61 1.60 85.0 0 0 355.13 517.94 Q 358.74 519.28 361.15 521.69 A 2.93 2.85 75.4 0 0 362.34 522.41 L 365.18 523.28 A 1.04 1.02 -14.6 0 1 365.60 523.52 Q 366.35 524.25 367.09 526.21 C 367.82 528.16 371.03 528.87 372.45 529.23 A 2.38 2.38 0.0 0 1 374.26 531.42 L 374.51 536.22 Q 370.40 536.61 366.19 536.13 Q 356.70 535.03 346.80 532.96 Q 345.07 532.60 343.93 531.72 A 1.81 1.76 -82.6 0 1 343.38 530.99 L 342.60 529.04 A 0.87 0.80 -87.7 0 0 342.25 528.63 L 339.76 527.20 A 1.19 1.17 -82.0 0 1 339.22 526.47 Q 337.82 520.53 338.56 515.97 A 1.65 1.65 0.0 0 1 340.14 514.59 Q 347.35 514.36 353.09 512.89 Z" data-c-fill="b5805d"/><ellipse fill="#000000" cx="0" cy="0" transform="rotate(-151.7 438.127 168.739)" rx="8.91" ry="8.41" data-c-fill="10101"/><path fill="#000000" d="M 587.39 553.83 L 581.63 553.83 A 1.63 1.63 0.0 0 1 580.00 552.17 L 580.21 541.65 A 0.84 0.83 -2.3 0 1 580.97 540.83 L 587.76 540.20 A 0.69 0.68 -2.8 0 0 588.38 539.52 C 588.41 535.85 588.23 527.65 592.38 525.83 Q 595.55 524.45 598.30 525.45 A 1.81 1.67 75.4 0 1 598.94 525.86 L 602.77 529.69 A 1.43 1.42 -70.5 0 1 603.18 530.56 L 604.03 539.76 A 0.81 0.80 87.6 0 0 604.82 540.49 L 612.91 540.65 A 0.84 0.84 0.0 0 1 613.74 541.51 L 613.53 552.66 A 1.41 1.41 0.0 0 1 612.12 554.04 L 604.84 554.04 A 0.88 0.88 0.0 0 0 603.96 554.92 L 603.96 579.84 A 0.98 0.97 2.6 0 0 604.85 580.81 Q 608.02 581.10 612.75 580.96 C 615.14 580.89 614.91 582.43 615.13 584.48 C 616.28 595.17 605.95 594.76 597.98 594.32 A 0.92 0.91 87.3 0 1 597.13 593.54 L 596.81 591.47 A 0.93 0.93 0.0 0 0 595.90 590.68 L 589.40 590.55 A 1.05 1.05 0.0 0 1 588.37 589.50 L 588.37 554.80 A 0.98 0.97 -0.0 0 0 587.39 553.83 Z" data-c-fill="10101"/><path fill="#f49090" d="M 397.17 539.85 L 403.80 539.85 A 0.63 0.62 0.0 0 0 404.43 539.23 L 404.43 534.27 A 0.90 0.89 90.0 0 1 405.32 533.37 L 504.14 533.37 A 0.55 0.55 0.0 0 1 504.69 533.97 L 504.33 538.99 A 0.47 0.46 2.0 0 1 503.86 539.42 L 498.73 539.42 A 0.84 0.83 -90.0 0 0 497.90 540.26 L 497.90 544.76 A 0.66 0.66 0.0 0 1 497.24 545.42 L 492.26 545.42 A 0.41 0.41 0.0 0 0 491.86 545.89 L 492.60 550.71 A 0.96 0.96 0.0 0 1 491.59 551.81 L 488.33 551.57 A 0.49 0.49 0.0 0 0 487.80 552.06 L 487.80 556.90 A 0.67 0.67 0.0 0 1 487.13 557.57 L 482.55 557.57 A 0.58 0.58 0.0 0 0 481.97 558.15 L 481.97 562.65 A 1.51 1.50 5.0 0 1 480.20 564.13 L 477.66 563.68 A 0.68 0.68 0.0 0 0 476.86 564.35 L 476.86 572.31 A 0.72 0.72 0.0 0 1 476.08 573.03 L 471.72 572.72 A 0.66 0.65 -87.6 0 0 471.01 573.38 L 471.01 579.28 A 1.25 1.25 0.0 0 1 469.76 580.53 L 464.71 580.53 A 0.59 0.59 0.0 0 0 464.12 581.12 L 464.12 585.57 A 0.71 0.71 0.0 0 1 463.41 586.28 L 353.92 586.28 A 1.04 1.04 0.0 0 1 352.88 585.24 L 352.88 582.07 A 0.94 0.94 0.0 0 1 353.82 581.13 L 358.39 581.13 A 1.41 1.41 0.0 0 0 359.80 579.82 L 360.42 571.41 A 0.59 0.59 0.0 0 1 360.94 570.86 Q 365.06 570.40 366.13 573.03 A 1.72 1.71 -8.9 0 0 367.59 574.09 L 377.59 574.82 A 0.92 0.92 0.0 0 0 378.56 574.06 Q 379.41 569.02 378.61 564.58 A 1.91 1.90 16.9 0 0 378.05 563.54 C 373.93 559.51 371.90 559.27 366.34 559.03 A 1.25 1.25 0.0 0 1 365.19 557.43 L 365.36 556.88 A 1.93 1.93 0.0 0 1 367.19 555.56 L 369.84 555.56 A 0.82 0.82 0.0 0 0 370.65 554.88 L 371.15 552.08 A 0.88 0.87 -84.9 0 1 372.01 551.36 L 378.58 551.36 A 0.93 0.93 0.0 0 1 379.51 552.29 L 379.51 554.89 A 1.38 1.38 0.0 0 0 380.89 556.27 L 387.76 556.27 A 1.15 1.14 90.0 0 0 388.90 555.12 L 388.90 550.12 A 1.24 1.23 -0.0 0 1 390.14 548.89 L 395.97 548.89 A 0.73 0.72 -90.0 0 0 396.69 548.16 L 396.69 540.33 A 0.48 0.48 0.0 0 1 397.17 539.85 Z M 417.41 556.26 A 0.60 0.60 0.0 0 0 418.02 555.66 L 418.02 551.89 A 0.60 0.60 0.0 0 1 418.62 551.29 L 425.43 551.29 A 0.60 0.60 0.0 0 0 426.02 550.76 L 427.22 540.89 A 0.60 0.60 0.0 0 0 426.62 540.22 L 409.12 540.22 A 0.60 0.60 0.0 0 0 408.52 540.82 L 408.52 546.13 A 0.60 0.60 0.0 0 1 407.85 546.73 L 404.25 546.29 A 0.60 0.60 0.0 0 0 403.58 546.87 L 403.42 555.39 A 0.60 0.60 0.0 0 0 404.01 556.00 L 417.41 556.26 Z M 438.90 541.14 C 439.75 543.87 438.97 544.78 436.02 544.67 Q 433.70 544.59 432.60 544.58 A 0.67 0.67 0.0 0 0 431.93 545.25 L 431.93 555.02 A 0.84 0.84 0.0 0 0 432.77 555.86 L 446.14 555.86 A 0.62 0.61 -84.9 0 0 446.74 555.35 L 447.30 552.17 A 0.94 0.92 2.0 0 1 448.13 551.41 L 453.98 550.87 A 0.86 0.86 0.0 0 0 454.75 550.09 L 455.36 541.65 A 1.13 1.12 -87.9 0 0 454.24 540.44 L 439.41 540.44 A 0.54 0.54 0.0 0 0 438.90 541.14 Z M 471.94 556.13 A 0.35 0.35 0.0 0 0 472.30 555.78 L 472.30 551.79 A 0.59 0.59 0.0 0 1 472.89 551.20 L 479.16 551.20 A 1.07 1.06 90.0 0 0 480.22 550.13 L 480.22 540.91 A 0.62 0.62 0.0 0 0 479.60 540.29 L 466.25 540.29 A 0.70 0.70 0.0 0 0 465.55 541.00 Q 465.60 544.80 465.08 545.72 A 1.00 1.00 0.0 0 1 464.22 546.24 L 461.29 546.29 A 0.96 0.96 0.0 0 0 460.35 547.23 L 460.21 554.80 A 1.11 1.10 -89.0 0 0 461.29 555.93 L 471.94 556.13 Z M 404.15 571.32 L 407.83 571.59 A 0.89 0.89 0.0 0 0 408.79 570.70 L 408.79 562.97 A 1.39 1.39 0.0 0 0 407.40 561.58 L 395.02 561.58 A 0.89 0.88 -84.9 0 0 394.15 562.32 L 393.72 564.74 A 1.14 1.12 -84.3 0 1 392.59 565.68 Q 390.10 565.65 389.47 567.68 C 388.91 569.47 388.06 569.86 386.49 570.63 A 1.71 1.70 79.1 0 0 385.54 572.04 L 385.19 576.93 A 0.73 0.72 2.2 0 0 385.92 577.71 L 402.61 577.71 A 1.30 1.29 -2.6 0 0 403.90 576.30 L 403.50 571.98 A 0.61 0.60 -0.8 0 1 404.15 571.32 Z M 426.56 575.03 L 430.66 575.76 A 0.60 0.60 0.0 0 0 431.36 575.17 L 431.36 570.87 A 0.84 0.83 -2.6 0 1 432.12 570.04 L 435.75 569.71 A 0.84 0.82 3.3 0 0 436.48 569.07 Q 437.22 565.77 436.41 562.34 A 1.00 0.98 83.3 0 0 435.45 561.57 L 419.63 561.57 A 0.71 0.71 0.0 0 0 418.92 562.28 L 418.92 568.04 A 1.09 1.09 0.0 0 1 417.64 569.11 L 414.60 568.57 A 0.91 0.90 -85.0 0 0 413.54 569.47 L 413.54 576.51 A 1.03 1.03 0.0 0 0 414.57 577.54 L 425.00 577.54 A 0.68 0.67 -90.0 0 0 425.67 576.86 L 425.67 575.77 A 0.76 0.75 4.9 0 1 426.56 575.03 Z M 441.43 577.67 L 455.16 577.67 A 0.70 0.70 0.0 0 0 455.86 576.97 L 455.86 572.74 A 0.79 0.79 0.0 0 1 456.65 571.95 L 462.87 571.95 A 1.47 1.47 0.0 0 0 464.34 570.48 L 464.34 563.25 A 1.76 1.76 0.0 0 0 462.49 561.49 L 449.17 562.18 A 1.70 1.70 0.0 0 0 447.66 563.31 Q 446.96 565.29 445.14 565.39 A 2.14 2.13 13.0 0 0 443.41 566.47 Q 440.78 571.14 440.88 577.13 A 0.55 0.55 0.0 0 0 441.43 577.67 Z" data-c-fill="f4f3f3" fill-opacity="0"/><path fill="#f49090" d="M 492.29 568.12 L 497.76 568.52 A 0.66 0.66 0.0 0 0 498.47 567.86 L 498.47 562.28 A 0.84 0.84 0.0 0 1 499.37 561.44 L 501.62 561.60 A 0.74 0.74 0.0 0 0 502.42 560.91 L 502.77 556.19 A 0.58 0.57 -87.8 0 1 503.34 555.65 L 508.16 555.65 A 0.57 0.57 0.0 0 0 508.73 555.08 L 508.73 548.87 A 0.51 0.51 0.0 0 1 509.24 548.36 L 514.31 548.36 A 1.30 1.29 -90.0 0 0 515.60 547.06 L 515.60 540.58 A 0.91 0.90 0.0 0 1 516.51 539.68 L 520.42 539.68 A 0.56 0.56 0.0 0 0 520.97 539.04 L 520.23 534.22 A 0.81 0.80 -4.3 0 1 521.03 533.30 L 535.62 533.30 A 0.83 0.82 -3.5 0 1 536.44 534.02 Q 536.64 535.60 536.25 536.93 A 0.88 0.87 -85.7 0 1 535.54 537.55 L 532.58 538.00 A 1.08 1.07 87.7 0 0 531.67 538.99 L 531.34 543.58 A 0.70 0.69 2.2 0 1 530.64 544.22 L 526.25 544.22 A 0.52 0.52 0.0 0 0 525.76 544.93 Q 526.71 547.45 526.54 550.63 A 0.72 0.72 0.0 0 1 525.82 551.31 L 520.57 551.31 A 0.41 0.40 -90.0 0 0 520.17 551.72 L 520.17 557.10 A 0.82 0.82 0.0 0 1 519.52 557.90 Q 517.43 558.36 515.44 557.94 A 0.66 0.66 0.0 0 0 514.65 558.69 L 515.54 564.58 A 0.66 0.66 0.0 0 1 514.99 565.33 Q 513.65 565.53 511.96 564.99 A 0.63 0.63 0.0 0 0 511.15 565.59 L 511.15 572.76 A 0.57 0.57 0.0 0 1 510.54 573.33 L 505.87 572.99 A 0.64 0.64 0.0 0 0 505.18 573.63 L 505.18 579.82 A 0.70 0.70 0.0 0 1 504.48 580.52 L 499.46 580.52 A 0.60 0.59 0.0 0 0 498.86 581.11 L 498.86 586.66 A 0.65 0.65 0.0 0 1 498.21 587.31 L 494.00 587.31 A 0.80 0.80 0.0 0 0 493.20 588.11 L 493.20 594.36 A 0.71 0.71 0.0 0 1 492.44 595.07 L 489.09 594.82 A 0.62 0.61 1.8 0 0 488.43 595.43 L 488.43 600.58 A 0.73 0.72 -90.0 0 1 487.71 601.31 L 482.02 601.31 A 0.49 0.49 0.0 0 0 481.53 601.80 L 481.53 607.80 A 1.04 1.04 0.0 0 1 480.49 608.84 L 330.93 608.84 A 1.68 1.68 0.0 0 1 329.26 606.96 L 329.37 606.04 A 1.57 1.56 5.6 0 1 331.04 604.67 L 334.18 604.90 A 0.58 0.57 -87.7 0 0 334.80 604.32 L 334.80 599.91 A 0.40 0.39 0.0 0 1 335.20 599.52 L 471.98 599.52 A 0.55 0.55 0.0 0 0 472.53 598.97 L 472.53 593.60 A 0.57 0.57 0.0 0 1 473.15 593.03 L 478.98 593.45 A 0.62 0.62 0.0 0 0 479.65 592.83 L 479.65 582.45 A 0.53 0.52 90.0 0 1 480.17 581.92 L 486.30 581.92 A 1.07 1.06 85.6 0 0 487.35 580.69 L 486.56 575.53 A 0.71 0.71 0.0 0 1 487.35 574.72 L 491.10 575.18 A 0.53 0.53 0.0 0 0 491.69 574.65 L 491.69 568.68 A 0.56 0.56 0.0 0 1 492.29 568.12 Z" data-c-fill="f4f3f3" fill-opacity="0"/><path fill="#000000" d="M417.41 556.26 404.01 556A.6.6 0 0 1 403.42 555.39L403.58 546.87A.6.6 0 0 1 404.25 546.29L407.85 546.73A.6.6 0 0 0 408.52 546.13L408.52 540.82A.6.6 0 0 1 409.12 540.22L426.62 540.22A.6.6 0 0 1 427.22 540.89L426.02 550.76A.6.6 0 0 1 425.43 551.29L418.62 551.29A.6.6 0 0 0 418.02 551.89L418.02 555.66A.6.6 0 0 1 417.41 556.26ZM629.38 540.68 629.22 542.92A1.53 1.52-87.9 0 0 630.74 544.56L633.19 544.56A.67.67 0 0 1 633.85 545.35L632.79 551.33A.58.58 0 0 0 633.36 552.01L637.45 552.01A.79.79 0 0 1 638.23 552.94L637.15 559.05A.75.74-86.3 0 0 637.92 559.93L642.03 559.72A.68.68 0 0 1 642.75 560.4L642.75 566.14A1.17 1.14 27.3 0 0 642.98 566.83L644.08 568.36A1.36 1.18 25.8 0 1 644.29 568.85L644.87 572.66A.73.73 0 0 0 645.41 573.26Q646.9 573.63 647.93 573.26A.95.95 0 0 0 648.54 572.52Q649.6 565.53 649.3 557.87A.61.6 1.3 0 1 649.95 557.25L653.78 557.53A.72.71-84.5 0 0 654.54 556.9L655.43 549.52A.78.78 0 0 1 656.09 548.84L657.09 548.69A.84.83.4 0 0 657.79 548.01L658.92 541.65A1.32 1.32 0 0 1 660.16 540.56L666.82 540.21A.71.7-5.9 0 1 667.55 540.8L667.98 543.66A1.1 1.1 0 0 0 668.93 544.58L672.25 544.98A.99.98 89.6 0 1 673.11 545.83Q673.36 547.64 672.81 549.74A.87.86-84.6 0 1 672.05 550.38Q670.61 550.51 669.9 551.34A.7.67-22.7 0 0 669.73 551.73L668.76 565.12A.65.65 0 0 1 668.15 565.72L664.28 565.92A.72.72 0 0 0 663.6 566.58L662.79 577.68A1.09 1.09 0 0 1 661.64 578.7Q659.41 578.6 658.8 579.33A.66.65-22 0 0 658.64 579.7L657.75 590.54A.95.94 88.1 0 1 656.95 591.4L655.52 591.62A1.07 1.07 0 0 0 654.61 592.56L653.86 598.75A1.03 1.02.3 0 1 652.95 599.64Q651.75 599.77 651.19 600.14A1.23 1.21 79.6 0 0 650.65 600.94L649.36 607.06A.89.88-88 0 1 648.63 607.75L644.58 608.37A.98.97.4 0 0 643.77 609.16L643.04 613.28A1.39 1.39 0 0 1 641.83 614.42Q631.04 615.69 621.52 615.13A.99.98-4.6 0 1 620.61 614.36Q619.92 611.21 620.9 606.15A1.77 1.75-88.6 0 1 622.37 604.74L623.37 604.58A1.12 1.11 7.9 0 0 624.22 603.94C626 599.95 628.51 601.55 631.06 599.57 632.89 598.15 636.27 597.84 639.03 597A.8.79 81.6 0 0 639.59 596.24L639.59 592.55A.64.54-58.7 0 0 639.56 592.36Q639.22 591.14 637.18 591.26A.77.76 83.8 0 1 636.38 590.61L635.15 582.51A1.01 1.01 0 0 0 634.44 581.7Q634.17 581.62 633.95 581.54A1.3 1.3 0 0 1 633.16 580.59L631.75 573.95A.99.98 89.5 0 0 630.96 573.17L627.03 572.48A.38.37-87.2 0 1 626.72 572.13L625.92 556.71A.4.4 0 0 0 625.52 556.33L620.72 556.33A.69.68 0 0 1 620.03 555.65L620.03 544.79A2.15 2.14 67.8 0 1 620.67 543.26Q624.18 539.82 628.76 539.98A.65.65 0 0 1 629.38 540.68ZM715.51 590.15 715.27 593.49A.77.76-.9 0 1 714.59 594.19Q706.76 595.08 698.88 594.28A.91.91 0 0 1 698.1 593.61Q697.72 592.12 697.9 590.83A1.18 1.18 0 0 0 696.73 589.48L693.51 589.48A1.35 1.35 0 0 0 692.16 590.8Q692.04 596.46 692.32 606.97 692.42 610.72 691.35 612.76C689.79 615.72 684.74 615.79 681.67 615.26Q676.71 614.4 676.7 609.25 676.61 566.16 676.7 562 677.01 547.41 677.1 545.82A1.23 1.23 0 0 1 678.48 544.67Q680.76 544.95 680.1 542.45A1.54 1.54 0 0 1 681.59 540.52L690.12 540.52A.92.92 0 0 1 691.03 541.3L691.44 543.99A.79.79 0 0 0 692.22 544.66L696.97 544.66A.88.88 0 0 0 697.85 543.72Q697.71 541.8 698.01 540.96A1.15 1.14 9.7 0 1 699.09 540.2L713.85 540.2A1.37 1.37 0 0 1 715.22 541.64Q715.16 542.81 715.43 543.54A.88.86-4.7 0 0 716.09 544.09L722.24 545.18A.94.93 5.2 0 1 723.01 546.1L723.01 551.16A.66.66 0 0 0 723.62 551.82L728.13 552.14A.87.86-87.9 0 1 728.93 553.01L728.93 580.4A.73.72 85.9 0 1 728.31 581.12L723.65 581.83A.69.69 0 0 0 723.07 582.51L723.07 588.84A.9.9 0 0 1 722.17 589.74L715.95 589.74A.44.44 0 0 0 715.51 590.15ZM707.67 556.5A.66.66 0 0 1 707.01 555.79L707.28 552.14A.66.66 0 0 0 706.59 551.43L699.35 551.81A.66.66 0 0 0 698.72 552.5L699.01 557.93A.66.66 0 0 1 698.23 558.62L692.88 557.67A.66.66 0 0 0 692.1 558.32L692.1 572.53A.66.66 0 0 0 692.71 573.18L697.78 573.56A.66.66 0 0 1 698.39 574.18L698.74 580.93A.66.66 0 0 0 699.43 581.56L706.33 581.19A.66.66 0 0 0 706.96 580.5L706.71 575.76A.66.66 0 0 1 707.42 575.06L713.41 575.5A.66.66 0 0 0 714.12 574.84L714.12 557.16A.66.66 0 0 0 713.46 556.5L707.67 556.5ZM438.9 541.14A.54.54 0 0 1 439.41 540.44L454.24 540.44A1.13 1.12-87.9 0 1 455.36 541.65L454.75 550.09A.86.86 0 0 1 453.98 550.87L448.13 551.41A.94.92 2 0 0 447.3 552.17L446.74 555.35A.62.61-84.9 0 1 446.14 555.86L432.77 555.86A.84.84 0 0 1 431.93 555.02L431.93 545.25A.67.67 0 0 1 432.6 544.58Q433.7 544.59 436.02 544.67C438.97 544.78 439.75 543.87 438.9 541.14ZM471.94 556.13 461.29 555.93A1.11 1.1-89 0 1 460.21 554.8L460.35 547.23A.96.96 0 0 1 461.29 546.29L464.22 546.24A1 1 0 0 0 465.08 545.72Q465.6 544.8 465.55 541A.7.7 0 0 1 466.25 540.29L479.6 540.29A.62.62 0 0 1 480.22 540.91L480.22 550.13A1.07 1.06-90 0 1 479.16 551.2L472.89 551.2A.59.59 0 0 0 472.3 551.79L472.3 555.78A.35.35 0 0 1 471.94 556.13ZM738.64 540.91A.66.65 0 0 1 739.3 540.26L746.59 540.26A.87.87 0 0 1 747.46 541.13L747.46 543.49A.68.68 0 0 0 748.14 544.17L750.96 544.17A1.01 1.01 0 0 1 751.97 545.19Q751.79 581.04 751.62 587.23C751.32 598.13 736.5 596.33 736.23 587.5Q735.65 568.63 736.1 545.75A.88.88 0 0 1 736.53 545.01L738.24 544.03A.83.82 74.6 0 0 738.64 543.32L738.64 540.91ZM782.03 540.62 792.1 540.76A3.48 3.44-21.2 0 1 794.56 541.83Q796.53 543.9 800.88 544.87A2.01 2-88.1 0 1 802.42 546.52L803.12 551.09A1.25 1.24-89.1 0 0 804.13 552.14L807.21 552.68A1.26 1.25 4 0 1 808.24 553.86Q809.05 572.95 808.69 587.16C808.53 593.55 802.84 596.8 797.19 594.44Q793.33 592.83 793.33 587.2C793.32 577.71 794.18 567.8 793.09 558.38A2.32 2.31 2.8 0 0 791.27 556.38Q788.35 555.77 787.29 553.85C786.15 551.79 783.6 551.47 781.76 551.78A1.74 1.72 0 0 0 780.35 553.18L779.33 558.91A1 .98 80.3 0 1 778.85 559.6L775.17 561.73A.62.61 79.4 0 0 774.86 562.19Q774.29 566.21 774.34 567.81 774.53 574.47 774.04 587.69 773.76 595.17 766.6 594.75C758.97 594.31 758.86 587.52 758.98 581.25Q759.1 575.52 759.08 546.35C759.07 542.65 759.71 540.54 763.53 540.27Q766.18 540.09 771.56 540.87A1.8 1.78 70.3 0 1 772.52 541.33Q773.06 541.83 773.52 542.68C774.33 544.22 776.99 543.84 778.49 543.58A1.16 1.16 0 0 0 779.35 542.93Q780.15 541.21 781.07 540.81A2.3 2.28-56 0 1 782.03 540.62ZM815.71 581.76A.08.08 0 0 1 815.63 581.68L816.19 552.79A.69.68 84.1 0 1 816.72 552.13L820.07 551.31A1.64 1.64 0 0 0 821.33 549.82L821.6 546.11A.92.9-4.9 0 1 822.29 545.3L826.35 544.26A1.96 1.92 11.9 0 0 827.37 543.61C828.04 542.79 827.9 541.17 829.45 540.94Q836.95 539.83 843.99 540.71A1.84 1.81 71.4 0 1 845.08 541.26Q845.56 541.76 845.98 542.97A.94.93 81.2 0 0 846.85 543.61L852.27 543.71A1.1 1.09-73.9 0 0 853.25 543.16L854.31 541.33A1.59 1.58-74.2 0 1 855.71 540.54L859.93 540.62A1.73 1.73 0 0 1 861.54 541.8Q862.45 544.52 864.67 545.14A1.54 1.54 0 0 1 865.79 546.55Q866.65 564.21 866.39 586.25 866.35 589.93 865.68 598.42A1.11 1.09-16.1 0 1 865.23 599.22L863.18 600.7A1.16 1.11-12.9 0 0 862.73 601.38Q862.04 604.43 861.73 606.49 861.39 608.72 859.34 608.62 855.9 608.46 855.56 608.49A.69.68.4 0 0 854.91 609.12L854.55 614A.72.71-89.1 0 1 853.88 614.66Q841.09 615.44 826.05 614.61A.57.55 84.3 0 1 825.54 614.18L824.63 610.43A1.64 1.63-88.1 0 0 823.55 609.27Q820.54 608.29 818.7 605.98C817.91 604.99 816.23 604.48 815.84 603.16Q814.85 599.81 815.68 596A1.4 1.4 0 0 1 816.97 594.91L825.82 594.45A.9.9 0 0 1 826.74 595.56Q826.27 597.44 827.56 597.61 830.71 598.02 833.78 598.01A.71.71 0 0 1 834.5 598.66L834.75 601.36A.93.92 87.9 0 0 835.66 602.21L843.85 602.37A.93.93 0 0 0 844.8 601.5L844.98 598.96A.9.9 0 0 1 845.83 598.13L850.26 597.9A1.14 1.13-3 0 0 851.34 596.71L850.73 585.09A.95.94-.3 0 0 849.81 584.19Q848.71 584.15 847.47 584.61A.99.98-8.3 0 0 846.82 585.47L846.44 590.62A.63.63 0 0 1 845.79 591.21L831.21 590.93A.98.98 0 0 1 830.25 589.93L830.32 586.11A.65.65 0 0 0 829.61 585.45L823.41 586.03A.68.68 0 0 1 822.7 585.16Q823.09 583.88 822.95 582.61A.81.81 0 0 0 822.16 581.89L815.71 581.76ZM837.58 573.93 837.73 575.52A.87.87 0 0 0 838.68 576.31L844.53 575.77A1.13 1.1 19.1 0 0 845.21 575.45Q846.56 574.1 845.93 570.65A.7.7 0 0 1 846.62 569.82L849.45 569.82A1.15 1.15 0 0 0 850.58 568.9Q851.63 563.73 850.78 558.09A1.68 1.67-89.3 0 0 849.42 556.69L846.61 556.19A1.31 1.3 89 0 1 845.55 555.16Q845.23 553.59 844.42 552.56A1.41 1.4 75.2 0 0 843.5 552.02Q839.84 551.51 836.62 552.03C835.12 552.27 834.71 553.54 834.47 554.85A1.54 1.5-18.6 0 1 834.06 555.65Q833.24 556.5 831.98 556.92A1.42 1.41-5.3 0 0 831.04 558.04Q830 565.01 830.58 572.64A.86.86 0 0 0 831.44 573.44L837.04 573.44A.54.53-2.3 0 1 837.58 573.93Z" data-c-fill="10101"/><path fill="#f49090" d="M707.67 556.5 713.46 556.5A.66.66 0 0 1 714.12 557.16L714.12 574.84A.66.66 0 0 1 713.41 575.5L707.42 575.06A.66.66 0 0 0 706.71 575.76L706.96 580.5A.66.66 0 0 1 706.33 581.19L699.43 581.56A.66.66 0 0 1 698.74 580.93L698.39 574.18A.66.66 0 0 0 697.78 573.56L692.71 573.18A.66.66 0 0 1 692.1 572.53L692.1 558.32A.66.66 0 0 1 692.88 557.67L698.23 558.62A.66.66 0 0 0 699.01 557.93L698.72 552.5A.66.66 0 0 1 699.35 551.81L706.59 551.43A.66.66 0 0 1 707.28 552.14L707.01 555.79A.66.66 0 0 0 707.67 556.5ZM837.58 573.93A.54.53-2.3 0 0 837.04 573.44L831.44 573.44A.86.86 0 0 1 830.58 572.64Q830 565.01 831.04 558.04A1.42 1.41-5.3 0 1 831.98 556.92Q833.24 556.5 834.06 555.65A1.54 1.5-18.6 0 0 834.47 554.85C834.71 553.54 835.12 552.27 836.62 552.03Q839.84 551.51 843.5 552.02A1.41 1.4 75.2 0 1 844.42 552.56Q845.23 553.59 845.55 555.16A1.31 1.3 89 0 0 846.61 556.19L849.42 556.69A1.68 1.67-89.3 0 1 850.78 558.09Q851.63 563.73 850.58 568.9A1.15 1.15 0 0 1 849.45 569.82L846.62 569.82A.7.7 0 0 0 845.93 570.65Q846.56 574.1 845.21 575.45A1.13 1.1 19.1 0 1 844.53 575.77L838.68 576.31A.87.87 0 0 1 837.73 575.52L837.58 573.93Z" data-c-fill="f4f3f3" fill-opacity="0"/><path fill="#b5805d" d="M 311.12 575.57 Q 307.97 576.75 305.60 579.68 A 2.22 2.15 -84.0 0 1 304.93 580.24 L 301.69 581.92 A 1.60 1.54 -87.9 0 0 301.06 582.53 L 298.52 586.92 A 1.59 1.56 89.5 0 1 297.98 587.48 Q 294.68 589.49 293.82 593.00 A 1.04 1.03 86.8 0 1 293.17 593.73 C 290.26 594.80 288.22 594.80 285.06 596.75 A 1.33 1.29 -4.7 0 0 284.57 597.31 L 283.22 600.44 A 1.30 1.28 1.5 0 1 282.48 601.13 Q 280.23 601.93 278.05 602.21 Q 276.12 602.47 275.48 604.12 Q 274.73 606.03 272.49 606.50 Q 270.97 606.81 264.52 607.22 A 0.63 0.63 0.0 0 0 263.93 607.83 L 263.93 607.86 A 0.69 0.66 4.5 0 0 264.55 608.55 L 266.57 608.78 L 256.58 609.06 A 1.58 1.58 0.0 0 1 254.98 607.21 L 255.28 605.56 A 1.99 1.98 -89.2 0 1 256.94 603.94 L 260.56 603.39 A 1.22 1.22 0.0 0 0 261.54 602.53 L 262.30 600.04 A 0.98 0.98 0.0 0 1 263.00 599.39 L 268.56 598.04 A 1.28 1.27 85.3 0 0 269.52 596.90 L 269.82 592.79 A 1.79 1.78 -4.9 0 1 271.18 591.18 L 273.97 590.50 A 1.03 1.02 2.5 0 0 274.71 589.83 Q 275.40 587.81 276.04 584.25 Q 276.41 582.21 278.38 581.32 A 1.99 1.98 -10.3 0 0 279.54 579.65 L 280.75 563.06 A 1.72 1.71 1.5 0 1 282.43 561.47 Q 285.68 561.41 287.26 562.16 A 1.76 1.74 -0.4 0 1 288.08 562.96 L 288.71 564.19 A 1.45 1.45 0.0 0 0 289.59 564.93 L 291.88 565.63 A 1.32 1.32 0.0 0 1 292.77 566.57 L 293.27 568.67 A 0.86 0.84 -1.4 0 0 293.95 569.30 L 299.30 570.25 A 1.73 1.72 87.9 0 1 300.68 571.54 L 301.12 573.36 A 1.01 0.98 -87.4 0 0 301.73 574.05 Q 306.20 575.70 311.12 575.57 Z" data-c-fill="b5805d"/><path fill="#000000" d="M403.5 571.98 403.9 576.3A1.3 1.29-2.6 0 1 402.61 577.71L385.92 577.71A.73.72 2.2 0 1 385.19 576.93L385.54 572.04A1.71 1.7 79.1 0 1 386.49 570.63C388.06 569.86 388.91 569.47 389.47 567.68Q390.1 565.65 392.59 565.68A1.14 1.12-84.3 0 0 393.72 564.74L394.15 562.32A.89.88-84.9 0 1 395.02 561.58L407.4 561.58A1.39 1.39 0 0 1 408.79 562.97L408.79 570.7A.89.89 0 0 1 407.83 571.59L404.15 571.32A.61.6-.8 0 0 403.5 571.98ZM425.67 575.77 425.67 576.86A.68.67 90 0 1 425 577.54L414.57 577.54A1.03 1.03 0 0 1 413.54 576.51L413.54 569.47A.91.9-85 0 1 414.6 568.57L417.64 569.11A1.09 1.09 0 0 0 418.92 568.04L418.92 562.28A.71.71 0 0 1 419.63 561.57L435.45 561.57A1 .98 83.3 0 1 436.41 562.34Q437.22 565.77 436.48 569.07A.84.82 3.3 0 1 435.75 569.71L432.12 570.04A.84.83-2.6 0 0 431.36 570.87L431.36 575.17A.6.6 0 0 1 430.66 575.76L426.56 575.03A.76.75 4.9 0 0 425.67 575.77ZM440.88 577.13Q440.78 571.14 443.41 566.47A2.14 2.13 13 0 1 445.14 565.39Q446.96 565.29 447.66 563.31A1.7 1.7 0 0 1 449.17 562.18L462.49 561.49A1.76 1.76 0 0 1 464.34 563.25L464.34 570.48A1.47 1.47 0 0 1 462.87 571.95L456.65 571.95A.79.79 0 0 0 455.86 572.74L455.86 576.97A.7.7 0 0 1 455.16 577.67L441.43 577.67A.55.55 0 0 1 440.88 577.13Z" data-c-fill="10101"/><ellipse fill="#b5805d" cx="0" cy="0" transform="rotate(-179.3 463.86 484.91)" rx="1.4" ry=".36" data-c-fill="b5805d"/><path fill="#b5805d" d="M933.15 976.19A.39.37-39.8 0 1 933.07 976.88Q932.53 977.07 932.09 976.82A.37.36-36.2 0 1 932.2 976.15Q932.8 976.01 933.15 976.19ZM977.79 977.22Q977.85 977.79 977.75 978.09A.23.23 0 0 1 977.31 978.08Q977.23 977.76 977.41 977.18A.19.19 0 0 1 977.79 977.22ZM973.63 978.68Q973.75 977.75 973.87 977.61A.26.26 0 0 1 974.33 977.71Q974.42 978.09 974.08 978.81A.24.24 0 0 1 973.63 978.68ZM966.55 979.39Q966.31 979.57 965.63 979.67A.45.35-75.3 0 1 965.34 979.01Q965.59 978.57 966.36 978.68A.4.4 0 0 1 966.55 979.39ZM961.35 978.96C961.58 978.83 962.73 978.9 962.33 979.54Q962.15 979.84 961.45 979.53A.35.3 39.3 0 1 961.35 978.96Z" data-c-fill="b5805d"/></svg>